{"glyphs":{"0":{"ha":789,"x_min":-3,"x_max":690,"o":"m 268 1011 q 307 999 286 1011 q 353 970 328 988 q 407 932 378 953 q 469 893 436 911 q 516 881 490 883 q 567 876 542 879 q 617 861 593 872 q 657 820 640 850 q 682 737 674 790 q 685 594 690 683 q 672 429 679 511 q 671 268 665 347 q 667 176 671 215 q 653 115 663 136 q 627 93 643 93 q 588 122 611 93 q 556 135 574 140 q 517 112 538 129 q 476 72 497 94 q 433 31 454 49 q 393 5 413 13 q 358 11 374 -3 q 336 31 347 17 q 313 65 325 46 q 290 108 301 85 q 268 153 278 131 q 219 268 243 206 q 174 270 196 253 q 132 324 153 288 q 90 408 111 360 q 46 504 69 457 q 14 592 25 549 q 0 674 3 635 q 0 747 -3 714 q 11 803 3 779 q 30 821 18 819 q 56 817 42 822 q 88 807 71 813 q 121 807 104 801 q 154 833 138 813 q 185 900 171 853 q 224 987 206 963 q 268 1011 242 1011 m 282 803 q 242 795 256 811 q 219 754 228 779 q 208 703 211 729 q 199 664 204 676 q 178 612 186 640 q 172 560 171 583 q 182 523 172 536 q 213 518 192 510 q 292 546 264 543 q 333 537 319 549 q 347 500 346 525 q 344 444 347 475 q 335 379 340 414 q 333 314 331 344 q 346 258 335 283 q 386 219 357 232 q 377 222 368 208 q 408 255 386 235 q 456 294 429 275 q 497 317 482 314 q 531 321 515 322 q 554 324 546 319 q 563 345 563 329 q 553 400 563 361 q 549 468 542 439 q 564 526 557 497 q 569 585 571 554 q 539 657 568 615 q 518 690 521 683 q 508 702 515 697 q 479 719 501 707 q 400 768 457 732 q 347 794 368 786 q 313 803 326 801 q 292 804 299 806 q 282 803 285 803 z "},"1":{"ha":394,"x_min":1,"x_max":278,"o":"m 81 -58 l 25 150 q 28 201 26 176 q 28 247 29 224 q 25 289 28 269 q 20 373 17 325 q 31 464 24 421 q 53 567 39 514 q 16 647 25 618 q 9 688 7 675 q 22 703 11 701 q 46 705 33 706 q 69 706 58 704 q 81 719 79 707 q 83 806 86 767 q 53 872 79 846 q 8 953 14 917 q 16 1016 1 990 q 58 1056 31 1042 q 115 1067 86 1069 q 153 1050 133 1067 q 185 1003 172 1033 q 201 928 197 972 q 192 831 204 885 q 189 799 186 810 q 198 779 192 788 q 210 761 204 771 q 219 733 217 751 q 219 699 222 721 q 212 656 217 678 q 203 615 207 633 q 199 588 199 596 l 268 692 q 275 659 278 686 q 259 590 272 632 q 225 493 246 547 q 178 379 204 439 q 217 316 211 343 q 212 268 222 289 q 181 231 201 247 q 143 199 161 214 q 113 146 121 169 q 110 110 106 126 q 150 94 115 94 q 180 80 168 93 q 199 46 192 67 q 210 -1 207 25 q 214 -54 214 -28 q 206 -197 215 -118 q 188 -210 194 -194 q 174 -248 181 -226 q 160 -290 167 -269 q 143 -314 153 -310 q 120 -299 133 -318 q 88 -225 107 -281 l 81 -58 z "},"2":{"ha":839,"x_min":-18,"x_max":685,"o":"m 254 60 q 200 -10 221 3 q 164 -16 179 -22 q 133 0 149 -10 q 94 -3 118 10 q 12 33 35 7 q -7 85 -11 58 q 25 133 -3 111 q 94 157 53 154 q 132 167 113 157 q 172 181 151 176 q 213 180 192 186 q 254 143 233 174 q 260 145 257 138 q 267 167 263 153 q 278 197 272 181 q 296 226 285 214 q 315 237 304 235 q 335 242 326 239 q 349 250 344 244 q 344 268 353 256 q 333 314 329 297 q 350 341 338 331 q 376 358 363 351 q 393 372 390 364 q 366 435 378 400 q 348 503 354 471 q 341 563 342 536 q 348 598 340 589 q 372 594 356 607 q 414 539 388 582 q 447 634 440 600 q 449 685 454 668 q 428 709 443 703 q 398 722 414 715 q 367 738 382 728 q 344 775 351 749 q 320 786 342 783 q 272 789 299 789 q 220 787 246 789 q 185 782 194 785 q 163 767 172 779 q 141 744 153 756 q 113 725 129 732 q 67 726 96 718 q 25 726 43 732 q -3 716 7 719 q -16 717 -14 713 q -10 747 -18 721 q 19 803 -4 774 q 68 857 42 832 q 136 914 99 886 q 172 968 144 947 q 228 989 199 989 q 280 965 257 989 q 303 886 303 940 q 337 897 329 896 q 344 894 344 899 q 342 880 344 889 q 344 863 339 871 q 368 847 350 854 q 428 838 386 839 q 449 822 443 838 q 463 785 454 806 q 487 743 471 764 q 539 713 503 722 q 570 683 561 707 q 578 624 579 658 q 570 549 578 589 q 553 473 563 510 q 533 407 543 436 q 518 365 524 378 q 499 330 513 350 q 473 291 486 310 q 451 257 460 272 q 449 233 443 242 q 438 167 440 188 q 438 140 436 146 q 443 139 440 135 q 445 148 446 143 q 440 154 444 153 q 421 143 435 156 q 437 127 421 138 q 477 108 453 117 q 529 100 501 100 q 581 115 557 100 q 647 147 625 146 q 676 134 668 147 q 682 103 683 121 q 678 81 681 86 q 676 60 685 74 q 649 34 668 47 q 603 10 631 21 q 546 -3 576 0 q 483 3 515 -6 q 421 39 450 13 q 404 14 415 17 q 379 19 393 11 q 348 42 365 28 q 314 65 331 56 q 282 76 297 75 q 254 60 267 76 z "},"3":{"ha":683,"x_min":-7,"x_max":547,"o":"m 247 1136 q 301 1123 279 1136 q 324 1074 324 1110 q 392 1078 363 1083 q 438 1053 421 1072 q 458 1004 456 1035 q 449 935 461 974 q 442 875 436 896 q 459 840 449 854 q 476 815 469 826 q 469 782 482 803 q 433 730 443 749 q 422 694 422 711 q 427 658 421 678 q 442 601 433 638 q 438 584 442 590 q 435 567 435 578 q 438 553 435 561 q 442 539 442 544 q 468 524 463 526 q 475 515 474 521 q 479 490 476 508 q 497 428 482 472 q 493 420 489 422 q 506 415 497 418 q 524 408 514 413 q 539 393 533 403 q 542 367 547 379 q 523 343 536 356 q 494 317 510 331 q 465 286 478 303 q 446 248 451 269 q 449 199 440 226 q 458 133 461 163 q 438 86 456 104 q 392 62 421 68 q 324 67 363 56 q 301 15 324 31 q 249 -1 278 -1 q 192 15 219 0 q 157 53 165 29 q 89 86 121 69 q 36 118 61 101 q 4 150 11 135 q 13 183 -7 181 q 65 174 32 185 q 138 147 99 163 q 206 129 176 132 q 218 136 215 129 q 220 152 221 143 q 218 170 219 161 q 219 185 217 179 q 245 211 228 201 q 281 227 263 221 q 317 241 300 233 q 340 263 333 249 q 342 301 347 278 q 310 365 336 325 l 331 386 q 313 431 319 401 q 299 488 306 461 q 285 532 293 515 q 268 539 278 549 q 230 513 250 518 q 190 511 210 508 q 150 519 169 514 q 115 525 131 525 q 46 542 74 528 q 14 572 18 556 q 33 605 10 589 q 115 629 56 621 q 142 630 131 624 q 163 647 153 636 q 181 668 172 657 q 202 683 190 679 q 230 681 214 688 q 268 650 246 674 q 283 649 276 639 q 297 676 289 658 q 312 717 304 694 q 331 754 319 739 q 324 768 328 757 q 317 792 321 779 q 309 817 313 806 q 303 831 306 828 q 341 878 322 860 q 372 908 360 896 q 384 928 383 919 q 368 945 385 936 q 313 968 351 954 q 206 1004 274 982 q 162 998 186 1003 q 113 990 138 993 q 66 983 89 986 q 27 984 43 981 q 4 997 11 988 q 4 1025 -3 1006 q 34 1052 31 1040 q 31 1072 38 1064 q 17 1083 25 1079 q 11 1088 8 1088 q 49 1091 24 1090 q 97 1090 74 1092 q 157 1088 125 1089 q 189 1125 163 1114 q 247 1136 215 1136 z "},"4":{"ha":881,"x_min":-7,"x_max":747,"o":"m 497 4 q 517 64 515 43 q 513 93 519 85 q 493 99 506 101 q 468 91 481 97 q 447 77 456 85 q 442 67 439 69 q 410 93 413 69 q 415 150 407 117 q 437 223 424 183 q 456 296 450 263 l 393 386 q 340 402 367 392 q 282 407 314 413 q 214 361 233 368 q 189 363 194 354 q 186 392 183 372 q 185 426 189 411 q 164 444 182 440 q 101 428 146 449 q 51 477 64 457 q 40 511 39 497 q 51 535 42 525 q 65 553 60 544 q 65 571 71 561 q 32 594 60 581 q -2 635 3 622 q 0 655 -7 649 q 20 663 7 661 q 39 671 33 665 q 38 688 44 676 q -3 726 31 700 q 4 760 4 738 q 3 808 4 782 q 3 860 3 835 q 12 901 4 886 q 37 919 19 917 q 88 900 54 921 q 81 842 76 868 q 122 789 86 815 q 133 780 132 786 q 132 766 135 774 q 124 750 129 758 q 115 733 118 742 q 131 667 126 701 q 115 601 136 633 q 143 551 124 575 q 188 513 163 528 q 241 492 213 497 q 296 497 269 486 q 316 501 306 497 q 337 510 326 506 q 358 518 347 515 q 379 518 368 521 q 425 520 406 513 q 456 539 444 528 q 471 599 471 560 q 456 685 471 638 q 471 699 472 678 q 459 753 469 719 q 435 827 449 788 q 417 896 422 867 q 421 937 413 925 q 463 928 429 949 l 532 893 q 535 850 535 881 q 538 785 536 819 q 542 721 539 751 q 553 678 544 690 q 573 652 563 665 q 589 626 583 639 q 592 602 594 614 q 574 581 589 590 q 565 567 563 575 q 576 550 568 558 q 596 535 585 542 q 615 525 607 528 q 633 528 625 531 q 647 522 640 526 q 660 513 653 518 q 678 504 667 507 q 736 494 725 499 q 740 483 747 489 q 716 473 732 478 q 692 463 700 468 q 665 453 681 457 q 631 447 649 450 q 594 443 613 444 q 560 442 575 442 q 547 370 549 413 q 548 281 546 328 q 553 190 550 235 q 553 115 556 146 q 553 58 553 79 q 549 26 553 38 q 533 11 544 15 q 497 4 521 7 z "},"5":{"ha":803,"x_min":4,"x_max":700,"o":"m 128 838 q 149 857 140 838 q 166 898 158 876 q 183 935 174 919 q 204 942 192 950 q 237 928 225 939 q 256 904 249 917 q 267 872 263 889 q 303 874 285 869 q 339 883 321 878 q 374 894 357 889 q 406 900 390 900 q 429 898 418 903 q 449 886 440 893 q 466 874 458 879 q 482 872 474 869 q 560 889 521 882 q 631 894 600 896 q 681 882 663 893 q 697 844 700 871 q 686 819 697 836 q 658 785 675 803 q 619 753 640 768 q 578 735 599 739 q 542 740 558 731 q 517 782 525 750 q 500 798 511 800 q 474 786 489 796 q 442 765 460 776 q 406 754 424 754 l 253 775 q 243 764 247 769 q 229 755 239 758 q 201 752 219 751 q 149 761 182 753 l 135 685 q 107 646 114 663 q 105 619 100 631 q 142 608 110 608 q 191 570 178 606 q 206 492 204 535 q 197 379 207 442 q 187 377 192 385 q 176 358 182 369 q 214 363 200 350 q 242 386 228 375 q 276 399 257 397 q 329 372 296 401 q 371 358 344 360 q 424 358 397 357 q 472 356 450 358 q 503 338 494 353 q 502 324 503 332 q 496 310 501 315 q 502 299 501 304 q 503 289 503 294 q 529 276 524 278 q 536 271 535 275 q 540 253 538 267 q 558 206 543 239 q 554 198 550 200 q 567 194 558 196 q 585 189 575 192 q 600 178 594 186 q 603 158 608 168 q 585 140 597 149 q 556 120 572 131 q 528 97 540 110 q 510 69 515 85 q 517 32 506 53 q 525 -23 529 0 q 503 -59 521 -46 q 454 -76 485 -72 q 385 -72 424 -81 q 362 -114 385 -101 q 310 -126 339 -126 q 253 -115 281 -126 q 218 -86 226 -104 q 150 -58 181 -72 q 101 -34 124 -47 q 72 -10 78 -21 q 78 15 60 14 q 128 9 96 17 q 199 -10 160 1 q 267 -24 238 -21 q 279 -19 276 -24 q 281 -8 282 -14 q 279 6 281 -1 q 281 18 278 13 q 306 37 289 31 q 342 48 324 43 q 378 59 361 53 q 401 76 394 65 q 403 106 408 88 q 371 157 397 125 q 381 164 376 163 q 392 171 386 165 q 374 203 381 181 q 361 248 367 226 q 350 283 356 269 q 336 289 344 297 q 294 269 315 274 q 254 267 274 265 q 217 274 235 269 q 183 282 199 279 q 124 288 150 282 q 86 301 99 293 q 74 319 74 310 q 93 338 75 329 q 89 349 93 343 q 79 365 85 354 l 72 490 l 17 650 q 22 690 21 671 q 23 726 24 707 q 17 761 22 746 q 6 808 8 788 q 6 843 4 828 q 10 872 7 860 q 25 876 13 881 q 56 863 38 871 q 93 846 74 854 q 128 838 113 838 z "},"6":{"ha":669,"x_min":-6,"x_max":549,"o":"m 88 171 q 66 238 75 204 q 54 301 57 271 q 56 356 51 331 q 74 400 61 382 q 60 431 69 421 q 38 444 50 440 q 15 448 26 447 q 0 451 4 449 q 1 463 -4 454 q 25 490 6 471 l 18 643 q 7 694 15 672 q -3 733 -1 715 q 6 768 -6 751 q 53 803 17 785 q 83 823 68 811 q 113 842 97 835 q 147 849 129 850 q 185 831 164 849 q 236 847 211 840 q 282 851 261 853 q 317 838 303 849 q 338 803 332 826 q 349 768 343 776 q 366 758 356 760 q 390 754 376 756 q 422 742 403 753 q 467 703 442 731 q 525 622 492 676 q 543 583 538 604 q 546 547 549 561 q 533 528 543 532 q 504 539 522 524 q 485 560 496 547 q 466 582 475 572 q 451 594 457 592 q 449 588 446 597 q 448 553 457 554 q 426 566 439 553 q 401 598 413 579 q 393 622 390 617 q 392 646 399 632 q 374 669 386 660 q 345 678 361 678 q 317 664 329 679 q 292 651 306 653 q 265 651 279 649 q 240 660 251 654 q 219 671 228 665 q 176 677 199 681 q 134 662 153 674 q 103 633 115 650 q 94 601 92 617 l 157 483 l 226 483 q 303 503 276 510 q 349 476 331 497 q 380 428 367 456 q 414 386 393 401 q 469 352 456 368 q 481 319 482 336 q 474 285 481 303 q 469 247 467 268 q 480 214 472 232 q 491 178 488 196 q 488 142 494 160 q 456 108 482 124 q 476 33 479 64 q 455 -15 474 3 q 406 -40 436 -33 q 344 -44 375 -47 q 306 -51 321 -44 q 281 -64 290 -58 q 265 -68 271 -69 q 254 -51 260 -67 q 206 -16 225 -29 q 174 6 186 -3 q 153 26 161 15 q 135 53 144 36 q 115 99 126 71 q 88 171 104 126 m 358 60 q 375 65 369 60 q 386 81 381 69 q 404 140 397 113 q 400 199 411 167 q 387 247 389 219 q 379 296 385 275 q 356 323 376 308 q 311 347 335 338 q 269 359 288 357 q 254 351 251 361 q 260 294 269 304 q 230 291 250 285 q 190 310 210 297 q 164 324 169 324 q 153 313 149 329 q 168 274 157 297 q 190 229 179 251 q 199 199 201 207 q 199 181 196 193 q 208 153 203 168 q 221 126 214 139 q 233 108 228 114 q 249 92 242 96 q 265 89 257 89 q 283 89 274 89 q 303 81 292 89 q 333 62 318 69 q 358 60 347 54 z "},"7":{"ha":663,"x_min":7,"x_max":569,"o":"m 261 -197 q 194 -285 218 -264 q 161 -297 171 -307 q 153 -251 151 -286 q 163 -167 156 -215 q 179 -66 169 -119 q 197 34 189 -12 q 206 113 204 81 q 199 150 208 144 q 193 145 199 156 q 181 122 188 135 q 167 99 174 110 q 157 94 160 89 q 152 144 146 118 q 174 196 158 169 q 209 249 189 222 q 247 303 229 276 q 310 411 290 367 q 337 488 331 456 q 340 541 343 519 q 331 581 336 563 q 326 619 326 600 q 338 664 325 638 q 333 685 346 679 q 302 691 321 690 q 265 690 283 692 q 240 692 246 689 q 201 671 217 689 q 168 641 185 653 q 131 635 151 629 q 81 685 111 640 q 40 723 60 711 q 14 744 21 735 q 17 767 7 754 q 67 810 28 781 q 87 865 72 851 q 120 875 101 879 q 160 852 139 871 q 199 810 181 833 q 255 840 225 838 q 311 835 285 843 q 372 803 342 825 q 479 835 432 824 q 548 838 526 846 q 558 801 569 831 q 490 713 547 772 q 480 663 488 689 q 465 613 472 638 q 451 563 457 588 q 449 518 446 539 q 455 478 451 497 q 455 440 458 460 q 438 399 451 421 q 393 351 424 378 q 365 317 375 336 q 349 276 354 299 q 342 225 344 253 q 338 164 340 197 q 328 113 324 129 q 342 88 332 96 q 364 74 353 79 q 375 60 375 69 q 358 30 375 50 q 296 -31 340 10 q 284 -61 283 -43 q 287 -101 285 -79 q 285 -147 289 -122 q 261 -197 282 -171 z "},"8":{"ha":676,"x_min":-1,"x_max":592,"o":"m 206 1053 q 257 1037 232 1047 q 303 1011 282 1026 q 344 991 326 996 q 375 983 363 986 q 394 976 388 981 q 400 956 400 971 q 429 900 417 921 q 449 864 442 879 q 460 835 456 849 q 465 803 464 822 q 465 754 467 783 q 463 678 464 725 q 445 555 463 604 q 386 490 428 506 l 386 483 q 451 466 431 481 q 481 426 471 451 q 497 368 490 401 q 518 296 503 335 q 539 260 525 279 q 565 223 553 242 q 584 185 576 204 q 585 149 592 167 q 556 113 579 131 q 483 81 532 96 q 394 54 442 69 q 310 18 346 39 q 224 -3 257 -3 q 192 39 192 -3 q 163 76 192 60 q 101 108 135 93 q 37 138 67 122 q 4 171 7 153 q 7 215 -1 189 q 26 265 15 242 q 60 324 40 293 q 35 351 39 333 q 36 392 31 369 q 55 439 42 414 q 81 490 68 464 q 103 526 92 511 q 129 553 114 542 q 100 585 108 565 q 88 628 92 606 q 80 672 83 650 q 67 713 76 694 q 29 772 35 751 q 30 806 24 793 q 49 827 36 818 q 67 851 61 836 q 73 887 72 867 q 78 924 74 907 q 94 951 82 942 q 136 956 107 961 q 155 1031 136 1008 q 206 1053 174 1053 m 240 942 q 230 941 235 942 q 219 935 225 940 q 181 901 199 919 q 157 851 163 883 q 149 806 157 831 q 136 761 142 782 q 151 724 136 749 q 185 676 167 699 q 218 642 203 654 q 233 643 233 631 q 242 685 235 675 q 258 691 249 694 q 279 674 268 688 q 301 646 290 661 q 319 617 311 631 q 331 601 326 604 q 345 605 343 589 q 345 646 347 621 q 341 696 343 671 q 344 726 339 721 q 353 741 350 729 q 356 767 356 753 q 356 797 357 782 q 351 824 354 813 q 342 843 349 836 q 328 855 336 850 q 313 867 321 860 q 296 886 304 874 q 275 915 285 901 q 254 935 265 929 q 247 941 249 940 q 240 942 246 942 m 268 449 q 215 435 236 446 q 188 408 194 425 q 189 365 181 390 q 226 310 197 340 q 231 286 235 299 q 218 260 228 274 q 197 232 208 246 q 180 205 186 218 q 176 181 174 192 q 199 164 179 171 q 232 176 217 158 q 264 212 247 194 q 299 235 281 229 q 344 213 318 242 q 358 212 357 200 q 352 247 358 224 q 338 296 346 269 q 324 338 329 322 q 320 373 318 353 q 317 414 322 393 l 289 442 q 278 445 283 442 q 268 449 274 449 z "},"9":{"ha":704,"x_min":3,"x_max":531,"o":"m 469 567 q 517 488 503 525 q 531 419 531 451 q 520 358 531 386 q 497 303 510 329 q 501 284 492 290 q 515 269 510 278 q 515 245 521 261 q 476 199 510 229 q 466 167 468 188 q 464 122 464 147 q 465 72 464 97 q 463 25 465 46 q 463 -34 460 -8 q 464 -81 467 -60 q 447 -122 461 -103 q 393 -162 432 -142 q 365 -179 378 -171 q 338 -192 351 -187 q 306 -198 324 -197 q 261 -190 288 -199 q 225 -188 232 -185 q 216 -197 218 -192 q 207 -206 214 -203 q 171 -204 200 -210 q 81 -194 110 -196 q 43 -191 53 -193 q 36 -182 33 -189 q 42 -156 39 -175 q 40 -100 44 -136 q 11 -3 35 -64 q 3 42 3 18 q 8 85 3 67 q 23 108 13 103 q 46 94 33 113 q 66 47 54 56 q 86 35 78 38 q 95 24 94 33 q 81 -24 96 15 q 78 -50 72 -35 q 97 -76 83 -65 q 128 -86 110 -86 q 164 -65 146 -86 q 186 -42 174 -56 q 211 -19 199 -29 q 235 -3 224 -8 q 254 -3 246 3 q 296 -15 272 -18 q 340 1 319 -12 q 375 35 361 15 q 386 74 389 56 q 399 164 396 122 q 395 232 401 200 q 365 275 389 264 q 341 273 353 281 q 318 253 329 265 q 296 227 307 240 q 275 206 285 214 q 226 182 246 183 q 194 192 207 181 q 171 223 181 203 q 153 264 161 243 q 134 301 144 285 q 108 324 124 318 q 57 350 67 333 q 52 387 47 367 q 67 430 57 407 q 74 476 76 453 q 61 529 71 497 q 49 594 51 561 q 56 660 46 628 q 101 713 65 692 q 163 758 146 739 q 190 791 181 778 q 208 810 199 804 q 247 817 218 817 q 285 819 271 814 q 308 831 299 825 q 326 836 318 836 q 344 824 333 836 q 373 774 365 794 q 383 738 381 754 q 386 708 385 722 q 394 674 388 693 q 418 630 401 656 q 469 567 435 604 m 213 699 q 199 688 207 693 q 192 671 192 682 q 201 635 186 653 q 224 601 215 618 q 222 567 232 585 q 157 532 211 550 q 142 515 144 529 q 142 484 139 501 q 149 449 144 467 q 157 421 154 431 q 174 392 157 408 q 213 363 192 375 q 251 349 233 351 q 268 358 268 346 q 288 437 276 415 q 314 456 300 458 q 341 433 328 453 q 365 386 354 413 q 370 392 374 374 q 361 438 367 410 q 351 495 356 467 q 351 532 346 524 q 356 556 357 540 q 351 587 356 571 q 342 617 347 603 q 331 636 336 631 q 319 652 325 649 q 305 656 313 656 q 288 658 297 657 q 268 671 278 660 q 240 690 253 682 q 213 699 228 699 z "},"\u0000":{"ha":0,"x_min":0,"x_max":0,"o":""},"\r":{"ha":419,"x_min":0,"x_max":0,"o":""}," ":{"ha":419,"x_min":0,"x_max":0,"o":""},"d":{"ha":601,"x_min":-86,"x_max":385,"o":"m 328 1299 q 342 1292 342 1299 l 363 1111 l 335 924 q 374 869 368 903 q 372 799 379 836 q 353 722 365 761 q 342 653 342 683 q 379 557 374 617 q 369 424 385 497 q 353 271 357 350 q 349 125 350 192 q 344 15 347 58 q 328 -28 340 -28 q 324 -26 325 -28 q 321 -21 321 -24 q 310 42 315 15 q 297 89 304 68 q 281 128 290 110 q 258 167 271 146 q 249 112 253 132 q 237 82 244 92 q 217 69 229 72 q 185 66 206 67 q 133 64 164 65 q 57 56 101 63 q 35 63 46 57 q 16 73 25 67 q 1 90 7 79 q -10 122 -10 103 q -6 158 -10 140 q 8 201 0 179 q -39 291 -12 246 q -76 382 -65 336 q -70 473 -86 428 q 8 563 -54 518 q 34 613 26 583 q 54 668 42 643 q 91 705 67 693 q 168 701 115 717 l 244 715 l 279 1049 q 285 1135 282 1090 q 293 1215 288 1179 q 307 1275 299 1251 q 328 1299 315 1299 m 168 569 q 154 553 163 569 q 138 517 146 538 q 122 475 129 496 q 113 444 115 454 q 106 428 113 433 q 90 417 99 422 q 74 405 82 411 q 64 389 67 399 q 71 330 58 357 q 99 271 83 303 q 115 258 110 260 q 126 257 121 257 q 154 267 142 257 q 182 292 167 276 q 200 305 192 301 q 216 309 208 308 q 230 313 224 310 q 244 326 236 315 q 251 349 247 335 q 257 378 254 363 q 260 408 260 394 q 258 431 261 422 q 238 452 250 439 q 212 483 225 465 q 188 522 199 501 q 175 563 178 542 l 168 569 z "},"e":{"ha":736,"x_min":28,"x_max":599,"o":"m 467 743 q 527 729 508 751 q 553 672 546 707 q 561 597 560 636 q 571 528 563 557 q 565 505 564 517 q 566 481 565 493 q 563 459 567 469 q 543 443 560 449 q 494 438 526 438 q 404 447 461 439 q 381 415 393 432 q 353 388 369 399 q 315 378 336 378 q 265 396 294 378 l 189 333 l 238 63 l 369 49 l 481 56 l 515 208 l 557 188 l 599 257 l 564 28 q 497 -14 525 1 q 449 -35 469 -29 q 411 -37 428 -42 q 376 -21 394 -33 q 274 -59 311 -47 q 217 -73 236 -71 q 191 -72 197 -75 q 182 -62 185 -68 q 165 53 179 -3 q 129 156 150 110 q 84 238 108 203 q 36 292 60 274 q 28 308 28 297 q 34 333 29 319 q 47 361 39 346 q 64 389 56 376 q 49 475 61 431 q 37 562 38 519 q 57 642 36 604 q 140 708 78 679 q 132 755 122 739 q 169 778 142 771 q 233 788 196 786 q 307 792 271 789 l 467 743 m 342 681 q 290 674 310 681 q 265 653 271 668 l 217 604 l 147 556 l 168 479 q 248 467 207 474 q 326 463 289 461 q 397 481 364 465 q 453 535 429 496 q 420 561 429 544 q 410 597 411 578 q 415 635 410 615 q 425 674 419 656 q 378 677 399 674 q 342 681 357 681 z "},"g":{"ha":729,"x_min":-49,"x_max":568,"o":"m 175 785 q 193 758 188 782 q 208 708 199 735 q 235 660 217 681 q 293 646 254 640 q 331 622 311 646 q 365 568 351 599 q 379 508 378 538 q 363 465 381 478 q 353 445 347 454 q 374 425 358 436 q 406 400 389 414 q 432 368 424 386 q 439 317 440 344 q 432 262 438 289 q 420 210 426 235 q 411 167 414 185 q 444 108 438 146 q 457 19 450 69 q 482 -93 464 -32 q 550 -222 500 -154 q 556 -272 568 -246 q 518 -323 544 -299 q 458 -369 492 -347 q 397 -403 424 -390 q 313 -437 358 -424 q 220 -454 267 -451 q 128 -449 174 -457 q 43 -417 82 -440 q -12 -355 7 -396 q -40 -278 -31 -314 q -46 -218 -43 -251 q -46 -155 -49 -185 q -33 -104 -43 -125 q 1 -83 -22 -83 q 56 -99 40 -83 q 72 -137 72 -115 q 57 -183 71 -160 q 22 -222 43 -207 q 2 -258 -3 -239 q 28 -291 7 -276 q 79 -314 49 -306 q 138 -319 110 -322 q 185 -301 165 -317 q 203 -250 204 -285 q 213 -235 201 -236 q 245 -240 225 -235 q 290 -255 265 -246 q 338 -270 315 -264 q 379 -276 361 -276 q 404 -264 397 -276 q 422 -199 425 -235 q 406 -123 419 -162 q 377 -42 393 -83 q 356 35 361 -1 q 294 14 317 14 q 254 26 271 14 q 224 56 238 38 q 189 90 210 75 q 146 103 171 100 q 95 113 121 107 q 44 135 69 119 q 1 188 19 151 q 11 245 -1 214 q 40 304 24 276 q 85 368 60 336 q 85 457 90 419 q 72 526 79 494 q 60 587 64 557 q 64 653 56 617 q 117 756 85 726 q 175 785 149 785 m 224 590 q 187 565 194 588 q 180 513 179 543 q 184 449 181 482 q 182 389 188 415 q 167 332 179 363 q 145 272 154 301 q 137 218 136 243 q 161 181 138 193 q 194 174 176 169 q 228 190 211 178 q 258 218 244 201 q 279 250 271 235 q 290 293 289 271 q 288 337 292 315 q 277 381 283 358 q 265 424 271 403 q 264 473 263 444 q 263 528 265 501 q 253 572 261 554 q 224 590 244 590 z "},"h":{"ha":815,"x_min":17,"x_max":685,"o":"m 119 1354 q 138 1342 138 1354 q 133 1314 139 1331 q 123 1278 128 1297 q 126 1243 118 1258 l 133 1243 q 166 1207 160 1243 q 169 1118 172 1171 q 160 1003 167 1065 q 154 889 154 940 l 182 743 q 208 735 194 740 q 235 725 221 729 q 263 719 249 721 q 293 722 278 717 q 342 794 324 774 q 368 815 360 814 q 379 801 376 815 q 383 766 382 786 q 388 725 385 746 q 399 693 390 704 q 424 685 407 682 q 474 715 442 688 q 535 651 515 675 q 561 615 554 628 q 568 594 568 601 q 572 580 568 586 q 586 564 575 574 q 626 535 597 554 q 633 498 642 517 q 608 456 625 479 q 576 405 592 433 q 564 340 561 376 q 542 364 546 361 q 540 361 538 367 q 551 348 543 356 q 564 340 558 340 q 590 310 575 329 q 626 264 606 290 q 672 172 660 222 q 683 76 685 121 q 668 2 681 32 q 640 -28 656 -28 q 624 -35 638 -33 q 594 -34 610 -36 q 569 -27 579 -32 q 564 -14 558 -22 q 575 36 567 10 q 588 88 583 63 q 588 135 592 113 q 564 174 585 158 q 526 194 543 179 q 508 236 508 210 q 485 340 497 289 q 488 444 472 392 q 455 518 476 483 q 406 574 433 553 q 349 600 379 596 q 293 583 319 604 q 238 546 260 581 q 208 457 217 511 q 201 336 199 403 q 217 201 204 269 q 232 135 222 168 q 251 74 242 103 q 266 22 260 44 q 271 -16 272 -1 q 257 -35 269 -31 q 217 -28 244 -39 q 190 -6 204 -19 q 160 10 175 7 q 130 1 146 14 q 99 -56 114 -11 l 92 111 l 113 306 l 99 319 q 78 389 78 350 q 52 430 63 410 q 36 465 42 450 q 33 546 28 499 q 46 638 38 593 q 71 743 56 689 q 68 842 74 788 q 55 953 63 897 q 40 1062 47 1010 q 29 1153 32 1114 q 20 1247 24 1213 q 19 1299 17 1281 q 33 1324 21 1317 q 71 1340 44 1332 q 100 1350 86 1346 q 119 1354 114 1354 z "},"i":{"ha":413,"x_min":4,"x_max":251,"o":"m 119 1278 l 189 1250 q 223 1214 210 1235 q 232 1160 236 1193 q 202 1074 228 1126 q 119 944 176 1022 q 69 985 92 964 q 34 1023 50 1003 q 15 1063 18 1043 q 15 1110 10 1083 q 28 1160 19 1136 q 50 1215 36 1186 q 31 1257 42 1236 q 17 1299 19 1278 q 29 1340 15 1319 q 85 1382 43 1361 l 119 1278 m 189 743 l 161 521 q 197 474 181 497 q 226 431 213 454 q 244 389 239 407 q 247 308 251 354 q 235 217 243 261 q 210 111 225 165 q 201 10 200 54 q 209 -68 203 -35 q 221 -124 215 -101 q 224 -160 226 -146 q 208 -178 222 -174 q 158 -182 193 -183 q 120 -178 129 -182 q 111 -160 111 -175 q 117 -117 111 -146 q 126 -35 124 -87 l 92 132 q 71 138 81 135 q 58 158 61 142 q 64 206 56 174 q 99 299 72 239 l 92 650 q 76 615 85 629 q 59 597 69 604 q 36 597 49 589 q 13 623 21 606 q 5 662 6 640 q 8 708 4 683 q 18 758 11 733 q 64 882 33 815 q 91 860 76 874 q 120 844 106 847 q 151 853 135 840 q 182 910 167 865 l 189 743 z "},"j":{"ha":621,"x_min":15,"x_max":396,"o":"m 144 1186 q 193 1168 171 1186 q 221 1103 215 1150 l 283 1082 q 303 1003 307 1028 q 283 965 300 978 q 242 944 267 953 q 200 915 218 936 q 158 890 176 899 q 128 883 143 883 q 110 901 113 882 q 99 948 106 921 q 85 1003 92 975 q 68 1068 76 1033 q 44 1100 44 1081 q 59 1138 44 1119 q 97 1169 74 1156 q 144 1186 121 1183 m 199 808 q 233 778 219 790 q 256 742 246 765 q 275 678 265 719 q 297 561 285 636 q 333 517 317 539 q 362 476 349 497 q 381 436 375 454 q 387 347 388 401 q 382 240 386 293 q 367 111 376 179 q 378 10 372 57 q 389 -83 385 -37 q 394 -174 393 -128 q 390 -271 396 -219 q 353 -394 379 -342 q 296 -477 328 -446 q 231 -517 264 -508 q 175 -507 199 -525 q 138 -461 157 -494 q 98 -370 118 -428 q 57 -230 78 -312 q 15 -35 36 -147 q 45 -16 25 -6 q 87 -65 65 -26 q 127 -165 108 -104 q 154 -299 146 -226 q 169 -335 157 -322 q 199 -353 181 -347 q 238 -358 217 -358 q 279 -354 258 -357 q 276 -181 281 -264 q 272 -109 275 -146 q 265 -38 269 -72 q 253 26 260 -4 q 238 76 246 56 l 203 243 q 182 253 192 249 q 169 274 172 258 q 175 322 167 290 q 210 410 183 353 q 206 486 214 463 q 188 519 199 510 q 165 532 176 529 q 148 544 153 535 q 147 574 143 553 q 172 644 151 596 q 149 664 157 653 q 141 688 142 675 q 144 714 140 700 q 154 742 147 728 q 199 808 169 774 z "},"l":{"ha":642,"x_min":10,"x_max":529,"o":"m 238 1278 q 258 1235 261 1254 q 242 1197 254 1217 q 217 1151 229 1176 q 210 1090 204 1126 q 234 1034 215 1064 q 258 972 253 1004 q 251 947 261 957 q 228 926 240 936 q 209 904 217 917 q 210 871 201 892 q 203 828 213 858 q 187 753 193 797 q 184 656 181 710 q 217 542 188 601 q 223 547 219 536 q 231 569 226 557 q 238 592 235 582 q 244 597 242 603 q 263 548 263 574 q 255 496 264 522 q 231 442 246 469 q 203 389 215 415 q 168 281 176 325 q 161 206 160 236 q 171 153 163 175 q 187 113 179 132 q 199 75 194 94 q 196 28 203 56 q 207 15 193 13 q 240 25 221 17 q 276 42 258 33 q 300 49 294 51 q 317 19 315 33 q 325 -7 318 4 q 356 -27 332 -18 q 439 -42 379 -36 q 488 -80 465 -68 q 519 -101 510 -92 q 522 -122 529 -110 q 481 -160 514 -133 q 475 -219 486 -204 q 444 -228 464 -233 q 398 -203 424 -222 q 349 -160 372 -183 q 305 -187 329 -192 q 257 -167 281 -183 q 203 -111 231 -147 q 103 -143 149 -132 q 33 -147 57 -154 q 13 -110 10 -139 q 57 -21 15 -81 q 60 28 57 3 q 65 79 63 54 q 66 128 67 104 q 57 174 65 153 q 41 213 49 194 q 33 251 33 232 q 40 292 32 271 q 71 340 47 314 q 92 353 86 356 q 97 347 97 350 q 92 349 96 343 q 85 389 88 356 q 82 440 90 424 q 61 465 74 457 q 37 478 49 474 q 22 493 25 483 q 31 523 19 503 q 78 583 43 543 q 83 615 88 596 q 73 658 79 635 q 65 706 67 681 q 78 757 63 731 q 87 810 83 781 q 95 874 90 840 q 109 947 100 908 q 133 1028 118 986 q 149 1149 133 1101 q 185 1225 165 1196 q 238 1278 208 1258 z "},"k":{"ha":753,"x_min":6,"x_max":613,"o":"m 175 1313 q 210 1262 204 1294 q 210 1190 217 1229 q 191 1106 204 1150 q 168 1021 178 1063 q 201 984 189 1006 q 215 939 213 963 q 211 892 218 915 q 189 847 204 868 q 170 806 176 832 q 165 757 164 781 q 175 718 165 733 q 203 708 185 703 q 253 740 233 717 q 289 789 274 764 q 317 834 304 814 q 349 854 331 854 l 369 826 q 444 947 413 901 q 497 1019 475 993 q 535 1057 519 1046 q 564 1073 551 1068 q 588 1080 576 1078 q 613 1090 599 1082 l 529 951 q 479 897 506 922 q 430 842 453 871 q 392 780 407 814 q 376 701 376 746 q 353 666 374 681 q 307 635 332 651 q 261 597 282 618 q 238 542 240 575 q 256 477 238 501 q 298 435 274 453 q 348 401 322 417 q 390 361 374 385 l 446 188 q 475 185 465 206 q 490 119 485 164 q 494 14 494 75 q 494 -112 494 -47 q 495 -240 494 -178 q 501 -347 496 -303 q 499 -381 504 -368 q 486 -397 494 -394 q 467 -387 478 -399 q 446 -347 456 -376 l 404 -201 q 380 -116 393 -165 q 356 -22 367 -67 q 328 83 342 29 q 306 176 317 131 q 281 264 296 222 q 248 341 267 306 q 203 403 229 376 l 182 361 l 168 382 q 138 183 163 272 q 92 35 113 93 q 83 -22 89 3 q 68 -59 78 -43 q 43 -69 58 -75 q 56 24 51 -25 q 67 128 61 74 q 81 243 72 183 q 106 368 90 303 l 78 424 l 106 618 q 103 623 107 631 q 90 598 99 615 q 72 558 82 581 q 51 516 61 535 q 33 488 42 497 q 22 486 25 478 q 6 564 7 525 q 13 640 6 603 q 31 715 19 678 q 50 785 42 751 q 58 833 54 799 q 68 913 63 868 q 79 1010 74 958 q 92 1110 85 1061 q 106 1199 99 1158 q 120 1264 113 1240 q 136 1290 128 1288 q 154 1264 144 1293 l 175 1313 l 175 1313 z "},"m":{"ha":926,"x_min":-49,"x_max":775,"o":"m 669 1292 q 665 1203 675 1258 q 646 1092 656 1149 q 635 988 636 1036 q 654 918 633 939 q 664 822 663 869 q 664 726 665 775 q 660 629 663 678 q 661 531 658 581 q 672 535 661 536 q 683 525 683 535 q 685 449 686 493 q 682 356 683 404 q 681 264 681 308 q 690 189 682 219 q 694 178 690 174 q 704 189 699 183 q 733 188 721 199 q 740 163 746 178 q 731 97 738 122 q 715 49 724 72 q 697 1 706 26 q 683 -65 689 -25 q 705 -53 689 -56 q 726 -65 721 -50 q 737 -106 735 -85 q 739 -149 739 -126 q 738 -193 739 -171 q 740 -236 738 -215 q 747 -338 746 -285 q 769 -440 747 -392 q 774 -491 775 -464 q 747 -528 774 -518 q 731 -526 736 -531 q 723 -515 725 -522 q 720 -499 721 -508 q 719 -483 719 -490 q 715 -497 717 -489 q 709 -510 713 -504 q 699 -521 706 -517 q 683 -522 693 -525 q 677 -502 678 -512 q 677 -481 676 -492 q 678 -458 678 -469 q 676 -433 679 -446 q 655 -319 671 -375 q 633 -206 639 -262 q 611 -101 625 -153 q 583 4 597 -49 q 558 109 569 57 q 540 214 546 161 q 542 230 543 221 q 542 247 542 239 q 544 264 542 256 q 554 276 546 272 q 569 271 563 276 q 581 260 576 265 q 590 255 586 256 q 597 264 594 254 q 585 423 597 346 q 561 582 572 500 q 538 439 550 510 q 504 296 526 368 q 471 163 482 229 q 454 29 460 96 q 452 -34 449 -4 q 461 -97 456 -64 q 461 -114 464 -104 q 452 -131 458 -124 q 435 -142 446 -139 q 411 -142 425 -146 q 391 -119 397 -132 q 382 -92 385 -107 q 378 -63 379 -78 q 375 -33 378 -49 q 367 -24 375 -19 q 354 -33 360 -29 q 310 -34 332 -49 q 282 4 288 -19 q 272 71 271 38 q 280 138 274 104 q 294 204 286 171 q 304 271 301 238 q 258 374 276 319 q 218 481 240 428 q 199 528 204 504 q 190 578 193 553 q 182 628 186 603 q 168 676 178 653 l 168 417 q 171 201 174 311 q 146 -15 168 90 q 143 -35 146 -25 q 134 -54 140 -46 q 119 -66 128 -62 q 96 -65 110 -69 q 95 -112 93 -89 q 99 -158 97 -135 q 101 -203 101 -181 q 96 -250 101 -226 q 75 -258 90 -264 q 53 -243 60 -253 q 35 -347 38 -296 q 18 -446 33 -397 q 13 -462 15 -453 q 8 -478 11 -471 q -1 -489 6 -485 q -18 -490 -7 -493 q -30 -458 -35 -475 q -25 -421 -25 -440 q -17 -332 -19 -378 q -4 -243 -15 -286 q 15 -190 1 -215 q 18 -135 28 -164 q -18 -117 -4 -131 q -32 -85 -32 -104 q -40 -17 -35 -54 q -47 57 -44 19 q -46 130 -49 94 q -32 194 -43 165 q -10 204 -29 211 q 28 187 8 197 q 63 172 49 176 q 68 189 76 167 q 68 607 89 397 q 48 621 57 611 q 39 644 39 631 q 34 751 28 697 q 68 854 40 806 q 78 872 71 864 q 96 886 86 881 q 117 892 106 892 q 139 886 128 893 q 143 877 142 883 q 146 867 144 871 q 149 863 147 863 q 154 874 151 864 q 183 869 169 883 q 196 842 196 856 q 216 876 207 861 q 225 911 225 892 q 217 941 219 926 q 225 975 214 956 q 264 1036 242 1003 q 318 1089 286 1069 q 331 1090 326 1093 q 336 1081 335 1088 q 336 1066 338 1075 q 332 1050 335 1057 q 315 1003 326 1026 q 292 955 304 979 q 273 906 281 931 q 268 854 265 881 q 283 798 274 825 q 304 743 293 771 q 327 688 315 715 q 347 632 339 661 q 365 531 364 582 q 361 429 365 481 q 353 327 357 378 q 354 226 349 276 q 374 270 361 251 q 397 316 386 289 q 417 385 408 343 q 428 499 426 426 q 453 613 439 553 q 484 733 467 672 q 521 851 501 793 q 561 963 540 910 q 581 1020 575 990 q 590 1080 588 1050 q 594 1141 593 1110 q 597 1203 594 1172 q 604 1233 600 1217 q 617 1262 608 1249 q 638 1283 625 1275 q 669 1292 650 1292 z "},"o":{"ha":544,"x_min":-6,"x_max":476,"o":"m 283 643 q 310 631 300 643 q 317 585 321 618 q 340 535 317 557 q 390 494 363 514 q 444 452 418 474 q 474 404 469 431 q 469 348 476 382 q 453 282 461 314 q 429 203 442 244 q 449 162 446 186 q 445 107 451 138 q 428 43 439 76 q 406 -25 417 10 q 360 -115 390 -87 q 306 -143 331 -143 q 283 -122 290 -143 q 267 -76 276 -101 q 238 -32 257 -51 q 182 -17 219 -12 q 118 0 138 -18 q 89 53 99 18 q 74 135 79 88 q 54 242 68 183 q 28 314 47 276 q 2 388 10 351 q 8 459 -6 424 q 81 525 22 494 q 156 565 119 549 q 221 608 192 582 q 283 643 254 643 m 306 419 q 290 408 297 419 q 274 380 282 396 q 259 348 267 364 q 242 324 251 332 q 223 321 233 317 q 200 350 213 325 q 188 353 189 368 q 190 308 186 338 q 200 243 194 278 q 210 189 206 208 q 213 142 214 169 q 214 91 213 115 q 224 51 215 67 q 256 38 232 35 q 325 85 310 38 q 294 218 340 133 q 289 252 286 233 q 299 290 292 271 q 316 328 307 310 q 330 364 325 347 q 331 393 335 381 q 311 413 328 406 q 306 419 311 419 z "},"n":{"ha":926,"x_min":3,"x_max":754,"o":"m 640 1104 q 690 1043 672 1078 q 724 972 708 1008 q 732 941 735 957 q 724 910 729 925 q 742 814 733 863 q 753 724 751 765 q 745 655 754 683 q 710 618 736 626 q 690 592 689 613 q 699 544 690 571 q 719 488 708 517 q 731 438 731 458 q 722 377 733 406 q 695 319 710 349 q 667 261 681 290 q 654 201 654 232 q 661 121 654 165 q 676 31 668 76 q 687 -58 683 -14 q 682 -139 690 -103 q 654 -174 676 -160 q 606 -174 632 -189 q 587 -187 590 -165 q 584 -240 583 -208 q 585 -303 585 -271 q 578 -347 586 -335 q 538 -333 551 -353 q 529 -292 524 -312 q 518 -215 533 -251 q 480 -144 503 -178 q 432 -82 457 -111 q 388 -28 407 -53 q 364 15 369 -4 q 376 49 358 35 q 394 94 400 67 q 369 151 388 121 q 326 210 350 181 q 293 264 303 240 q 242 301 267 279 q 200 353 218 322 q 174 428 182 385 q 175 528 167 471 q 153 358 164 444 q 147 188 142 271 q 151 174 147 175 q 159 178 154 174 q 170 188 164 182 q 182 194 176 194 q 195 181 192 189 q 199 163 199 172 q 197 143 199 153 q 196 125 196 133 q 160 -32 181 42 q 133 -174 139 -106 q 117 -318 128 -278 q 95 -360 107 -358 q 73 -339 83 -362 q 57 -292 63 -315 q 56 -241 51 -274 q 68 -172 61 -208 q 81 -101 75 -136 q 85 -42 88 -65 q 67 35 79 -8 q 41 117 54 78 q 18 185 28 156 q 8 222 8 214 q 15 249 3 238 q 43 250 28 261 q 53 240 49 244 q 57 250 57 235 q 62 310 63 283 q 59 361 61 336 q 56 413 57 386 q 57 472 54 439 q 71 478 63 478 q 85 479 79 479 q 74 554 85 514 q 51 635 64 594 q 27 717 38 676 q 17 792 17 757 q 31 856 17 828 q 85 903 46 885 q 86 1014 83 975 q 96 1065 89 1053 q 113 1069 103 1078 q 133 1042 122 1061 q 157 995 144 1022 q 182 944 169 968 q 262 718 224 829 q 321 486 300 607 q 365 407 331 444 q 436 333 399 369 q 503 257 474 296 q 536 174 533 218 q 560 244 542 213 q 590 312 578 276 q 599 393 603 347 q 557 507 596 439 q 553 533 549 519 q 567 558 557 546 q 589 579 576 569 q 613 597 601 589 q 568 783 574 714 q 577 881 563 853 q 621 899 592 910 q 682 847 650 889 q 677 903 685 876 q 658 955 669 929 q 636 1007 647 981 q 619 1063 625 1033 q 615 1089 614 1074 q 626 1104 615 1104 l 640 1104 z "},"p":{"ha":582,"x_min":-7,"x_max":467,"o":"m 64 743 q 72 676 67 704 q 85 627 76 649 q 103 588 93 606 q 126 549 114 569 q 138 622 132 600 q 161 649 143 643 q 216 653 179 654 q 321 660 253 651 q 344 654 333 658 q 383 632 367 647 q 393 597 394 617 q 386 561 392 578 q 369 521 381 542 q 417 427 390 474 q 456 334 444 381 q 451 242 467 288 q 369 153 435 197 q 347 102 354 132 q 326 48 339 72 q 287 13 313 24 q 210 21 261 3 l 140 0 l 99 -333 q 97 -426 99 -378 q 88 -512 94 -475 q 69 -569 82 -550 q 36 -576 57 -589 l 22 -396 l 43 -208 q 8 -150 11 -185 q 12 -77 4 -115 q 31 -1 19 -39 q 43 69 43 38 q 2 160 11 101 q 8 299 -7 219 q 24 450 21 371 q 29 594 28 529 q 34 701 31 658 q 50 743 38 743 l 64 743 m 251 465 q 227 453 240 465 q 203 431 214 442 q 183 417 192 419 q 166 412 174 414 q 152 406 158 410 q 140 389 146 401 q 130 367 135 381 q 123 337 125 353 q 121 307 121 321 q 126 285 121 293 q 144 263 132 276 q 168 232 156 250 q 192 194 181 214 q 210 153 204 174 q 222 152 213 140 q 240 186 231 164 q 258 233 250 208 q 265 271 265 258 q 273 287 265 281 q 290 299 281 293 q 309 313 300 306 q 321 333 318 321 q 308 392 321 365 q 279 444 294 418 q 268 460 274 456 q 251 465 263 465 z "},"q":{"ha":899,"x_min":6,"x_max":778,"o":"m 439 882 q 446 875 446 882 q 478 859 469 875 q 501 818 488 843 q 545 764 515 793 q 640 708 575 735 q 657 635 656 668 q 652 572 658 603 q 633 512 646 542 q 610 449 621 482 q 591 375 599 415 q 585 285 583 335 q 578 214 590 249 q 550 153 565 179 q 597 120 576 132 q 613 97 618 108 q 614 59 604 76 q 643 26 624 42 q 687 -3 663 11 q 732 -33 711 -18 q 765 -66 753 -49 q 772 -104 778 -83 q 697 -77 731 -99 q 626 -35 663 -56 q 532 32 558 1 q 494 83 506 63 q 411 17 453 47 q 349 -35 369 -14 q 294 -85 319 -67 q 251 -104 269 -103 q 224 -87 233 -106 q 217 -28 214 -69 q 202 16 217 -1 q 165 47 188 33 q 117 72 143 61 q 69 97 92 83 q 28 126 46 110 q 8 167 11 142 q 15 249 6 199 q 38 350 25 300 q 71 472 53 407 q 44 522 47 488 q 47 600 40 556 q 67 698 54 644 q 92 806 81 751 q 110 848 100 836 q 132 858 121 860 q 156 847 143 857 q 181 825 168 836 q 206 806 193 814 q 231 799 218 797 q 258 808 249 804 q 283 820 268 813 q 322 839 297 828 q 397 868 347 850 q 423 875 413 874 q 439 882 433 876 m 376 743 q 320 725 350 743 q 262 684 290 707 q 208 638 233 661 q 168 604 183 614 q 166 549 165 586 q 168 473 167 513 q 170 398 169 433 q 168 347 171 363 q 180 258 163 300 q 224 174 197 215 q 265 153 244 153 q 301 167 281 153 q 342 201 321 181 l 356 215 q 324 242 344 225 q 284 279 304 260 q 249 319 264 299 q 238 354 235 339 q 243 392 246 378 q 236 417 240 407 q 232 431 232 426 q 244 438 232 435 q 275 413 260 425 q 302 390 288 401 q 328 368 317 379 q 356 322 343 347 q 390 285 369 296 q 432 264 421 274 q 453 301 440 276 q 478 354 465 326 q 502 407 492 382 q 515 444 513 432 q 475 520 489 475 q 451 608 461 565 q 432 684 442 650 q 404 729 422 718 q 393 739 399 735 q 376 743 388 743 z "},"r":{"ha":597,"x_min":0,"x_max":469,"o":"m 64 1125 q 74 1046 69 1086 q 83 968 78 1006 q 94 899 88 931 q 113 847 101 868 q 148 952 124 894 q 231 1083 172 1010 q 247 1064 240 1075 q 261 1044 253 1053 q 284 1033 269 1036 q 328 1042 299 1031 q 351 1036 340 1040 q 390 1014 374 1029 q 397 979 397 999 q 392 943 396 960 q 376 903 386 924 q 423 809 397 856 q 459 716 449 763 q 454 624 469 669 q 376 535 439 579 l 217 403 q 273 335 246 369 q 317 268 300 301 q 336 202 335 235 q 314 139 338 169 q 354 86 336 111 q 384 39 369 64 q 404 -7 399 14 q 407 -56 410 -28 q 400 -115 404 -83 q 392 -179 396 -146 q 390 -243 388 -212 q 401 -302 393 -275 q 416 -354 408 -329 q 429 -401 424 -379 q 432 -444 435 -424 q 417 -477 426 -468 q 396 -489 407 -486 q 369 -486 383 -492 l 314 -104 q 306 -94 314 -107 q 284 -58 297 -81 q 255 -6 271 -35 q 224 56 239 24 q 202 106 213 82 q 183 151 192 131 q 170 185 175 171 q 168 208 165 200 q 167 282 171 250 q 160 336 164 314 q 147 382 154 361 l 106 49 q 103 -44 106 4 q 95 -131 101 -93 q 76 -187 89 -168 q 43 -194 64 -207 l 29 -14 l 50 174 q 15 232 18 197 q 18 305 11 267 q 35 381 25 343 q 43 451 46 419 q 8 542 17 483 q 15 681 0 601 q 31 832 28 753 q 36 976 35 911 q 41 1083 38 1040 q 57 1125 44 1125 l 64 1125 m 258 847 q 234 835 247 847 q 210 813 221 824 q 195 790 199 801 q 190 767 192 779 q 185 741 188 754 q 175 715 183 728 q 163 701 172 707 q 146 691 154 696 q 133 681 138 686 q 133 667 128 675 q 151 645 139 658 q 175 614 163 632 q 199 576 188 596 q 217 535 211 556 q 228 534 219 522 q 247 568 238 546 q 265 615 257 590 q 272 653 272 640 q 267 673 272 663 q 256 694 261 683 q 246 715 250 704 q 244 736 242 725 q 257 763 247 751 q 276 783 267 774 q 290 803 285 793 q 286 826 294 814 q 275 842 281 838 q 258 847 269 847 z "},"s":{"ha":782,"x_min":-18,"x_max":607,"o":"m 515 576 q 547 566 536 576 q 578 556 557 556 q 603 544 599 553 q 601 525 607 535 q 580 508 594 515 q 550 500 565 500 q 524 482 538 489 q 500 470 513 475 q 481 465 488 465 q 397 465 439 475 q 369 461 385 465 q 341 451 354 457 q 317 442 328 446 q 300 438 306 438 q 271 446 289 443 q 238 438 253 449 q 224 425 226 429 q 220 417 221 421 q 216 408 219 413 q 203 396 213 404 q 193 395 197 393 q 185 399 189 397 q 178 403 182 401 q 168 403 174 406 q 151 379 157 392 q 140 361 146 367 q 142 348 138 358 q 156 325 147 338 q 178 301 165 313 q 203 285 190 290 q 281 299 244 290 q 349 292 317 307 q 377 285 354 286 q 411 278 400 283 q 445 259 432 267 q 474 236 458 251 q 499 217 489 231 q 515 188 510 203 q 524 158 526 176 q 515 125 521 140 q 498 106 510 114 q 481 83 486 99 q 481 59 475 72 q 481 35 486 46 q 446 -21 469 3 q 390 -56 422 -44 q 374 -56 382 -58 q 356 -52 365 -54 q 338 -48 346 -50 q 321 -49 329 -46 q 304 -63 310 -54 q 293 -82 299 -72 q 281 -100 288 -92 q 265 -111 275 -108 q 249 -111 257 -114 q 234 -104 242 -108 q 219 -97 226 -100 q 203 -97 211 -94 q 93 -122 144 -112 q 15 -111 42 -132 q 10 -113 13 -108 q 4 -125 7 -118 q -3 -137 1 -132 q -12 -139 -7 -142 q -15 -128 -18 -139 q -12 -111 -12 -117 q -5 -90 -10 -103 q 6 -65 0 -78 q 17 -41 11 -51 q 29 -28 24 -31 q 55 -31 42 -25 q 81 -44 68 -37 q 104 -56 93 -51 q 126 -56 115 -61 q 133 -42 132 -50 q 140 -35 135 -35 q 158 -24 149 -26 q 176 -22 167 -22 q 196 -23 186 -22 q 217 -21 206 -24 q 238 -10 228 -15 q 258 7 247 -4 q 273 28 268 13 q 293 49 278 43 q 314 55 304 54 q 335 56 324 56 q 377 65 358 61 q 406 79 396 69 q 414 108 415 89 q 397 160 413 126 q 385 178 392 172 q 371 188 379 185 q 351 191 363 190 q 328 194 340 192 q 290 200 307 200 q 251 194 272 200 q 194 188 219 186 q 142 200 168 189 q 87 232 115 211 q 22 285 58 253 q 27 308 17 290 q 43 340 38 325 q 66 394 54 367 q 99 438 78 422 q 126 448 110 449 q 154 458 143 447 q 178 489 169 469 q 203 514 188 508 q 224 520 214 519 q 244 521 233 521 q 265 517 256 521 q 286 514 275 514 q 311 535 301 519 q 342 556 321 550 q 369 558 354 561 q 397 553 383 556 q 426 549 411 550 q 453 556 440 547 q 515 576 494 586 z "},"t":{"ha":706,"x_min":6,"x_max":624,"o":"m 363 1326 q 381 1268 386 1303 q 360 1194 375 1233 q 330 1115 344 1156 q 321 1042 315 1075 q 329 1020 324 1026 q 342 1010 335 1014 q 354 1001 349 1007 q 363 979 360 994 q 358 944 365 964 q 344 901 351 924 q 331 856 336 879 q 335 813 326 833 q 338 749 344 783 q 319 685 331 715 q 297 632 307 654 q 293 604 288 610 q 321 597 306 593 q 349 607 336 600 q 374 621 363 614 q 390 625 385 628 q 399 607 397 617 q 399 589 401 597 q 390 569 396 579 q 397 558 385 554 q 430 565 408 561 q 479 567 451 569 q 536 535 507 564 q 584 497 563 508 q 615 476 606 485 q 616 455 624 467 q 578 417 608 443 q 572 357 583 372 q 541 347 561 342 q 495 371 521 351 q 446 417 469 390 q 401 389 426 385 q 351 410 375 393 q 293 465 324 429 q 299 343 300 399 q 289 251 297 294 q 258 194 281 207 q 263 144 258 168 q 272 98 268 119 q 276 58 276 76 q 265 28 275 40 q 239 -28 246 -6 q 231 -68 232 -50 q 230 -104 229 -86 q 226 -145 231 -122 q 208 -199 221 -168 q 168 -278 196 -231 q 147 -244 153 -256 q 142 -224 142 -232 q 147 -209 143 -217 q 157 -187 151 -201 q 166 -149 163 -174 q 168 -83 169 -125 q 171 -34 168 -60 q 176 17 174 -8 q 177 66 178 42 q 168 111 176 90 q 152 151 160 132 q 144 189 144 169 q 151 230 143 208 q 182 278 158 251 q 199 312 194 293 q 204 353 204 331 q 201 404 204 376 q 196 465 199 432 q 179 475 193 474 q 149 478 165 476 q 116 486 132 481 q 92 507 100 492 q 74 522 89 517 q 44 531 60 528 q 17 540 29 535 q 8 556 6 544 q 19 590 8 571 q 50 604 29 610 q 77 597 68 596 q 92 605 86 599 q 101 619 97 611 q 113 632 104 626 q 151 641 128 638 q 189 660 174 644 q 194 671 199 672 q 184 667 190 669 q 176 670 178 665 q 189 701 174 675 q 198 758 194 728 q 206 824 201 789 q 220 899 211 860 q 244 979 229 938 q 263 1113 244 1050 q 303 1224 281 1175 q 363 1326 328 1279 z "},"u":{"ha":699,"x_min":3,"x_max":594,"o":"m 543 785 q 563 781 554 785 q 578 771 572 776 q 592 733 590 753 q 590 694 594 714 q 580 653 586 674 q 571 611 574 632 q 567 576 565 593 q 572 542 569 558 q 574 510 575 526 q 564 479 574 494 q 549 451 558 464 q 531 427 540 439 q 515 403 522 415 q 508 375 508 390 q 510 344 514 351 q 502 334 507 338 q 495 325 497 331 q 501 299 493 319 q 514 276 501 288 q 540 252 526 264 q 563 231 554 240 q 564 215 572 221 q 520 186 532 196 q 506 170 508 176 q 503 156 503 164 q 497 135 504 149 q 472 99 490 122 q 411 35 453 75 q 362 65 379 63 q 335 57 344 68 q 324 25 326 46 q 320 -17 322 4 q 315 -53 318 -37 q 303 -68 313 -68 q 274 -49 293 -68 q 224 21 256 -29 q 188 26 206 31 q 151 15 169 22 q 114 4 132 7 q 78 14 96 1 q 54 64 60 38 q 51 119 49 90 q 59 175 53 147 q 71 229 65 203 q 32 231 50 218 q 8 264 14 243 q 9 350 3 306 q 36 431 15 394 q 63 481 49 443 q 90 563 76 519 q 114 647 103 607 q 133 701 125 686 q 145 716 142 719 q 153 703 149 713 q 163 688 157 694 q 182 694 169 682 l 182 688 q 162 612 174 649 q 138 538 150 575 q 117 462 126 500 q 106 382 108 424 q 113 366 106 364 q 129 381 119 368 q 149 416 139 394 q 168 458 160 438 q 192 441 190 461 q 188 389 194 421 q 171 318 181 357 q 160 245 161 279 q 174 189 160 211 q 231 167 189 167 q 283 150 254 146 q 341 176 313 154 q 392 232 369 197 q 425 306 414 267 q 420 410 410 358 q 446 514 431 461 q 463 553 446 535 q 501 576 481 571 q 525 615 522 592 q 522 663 528 638 q 509 714 517 688 q 501 764 501 740 q 512 780 496 775 q 543 785 528 785 z "},"v":{"ha":531,"x_min":0,"x_max":419,"o":"m 369 889 q 384 878 375 889 q 404 840 393 867 q 417 727 414 775 q 418 638 419 679 q 414 558 417 597 q 411 472 411 519 q 385 432 396 461 q 367 364 374 403 q 358 283 361 325 q 356 208 356 242 q 355 155 361 175 q 337 122 349 135 q 310 103 325 110 q 279 90 294 96 q 252 77 264 85 q 238 56 240 69 q 240 -32 240 3 q 236 -90 239 -67 q 230 -125 233 -112 q 224 -146 226 -137 q 201 -131 211 -131 q 183 -126 190 -131 q 172 -101 175 -121 q 168 -28 168 -82 q 129 -22 146 -33 q 101 11 113 -10 q 85 60 90 32 q 77 114 79 88 q 77 162 75 140 q 85 194 79 183 l 64 368 q 41 472 58 418 q 12 578 24 526 q 3 677 0 631 q 43 757 7 724 q 26 840 22 815 q 50 875 29 864 l 92 736 l 119 611 l 175 139 q 186 172 175 163 q 213 188 197 181 q 242 203 228 194 q 265 236 257 213 q 278 308 275 265 q 279 397 281 351 q 275 481 278 442 q 272 542 272 521 q 297 559 285 568 q 317 535 308 550 q 333 510 326 519 q 342 528 339 501 q 338 551 342 538 q 329 585 333 564 q 324 637 325 606 q 328 715 322 668 q 344 839 333 789 q 369 889 354 889 z "},"w":{"ha":747,"x_min":-6,"x_max":660,"o":"m 613 1292 q 649 1271 639 1292 q 654 1229 660 1250 q 645 1176 649 1211 q 639 1103 642 1142 q 635 1029 636 1065 q 633 972 633 993 q 627 895 628 936 q 626 813 626 854 q 625 794 626 804 q 619 774 624 783 q 606 760 614 765 q 585 757 597 754 q 611 674 596 715 q 626 590 626 632 q 627 569 629 579 q 619 551 625 558 q 603 542 613 544 q 585 549 594 540 q 582 431 579 490 q 585 313 585 371 q 585 294 585 304 q 585 276 586 285 q 582 260 585 267 q 571 250 579 253 q 569 260 571 268 q 567 241 568 253 q 565 224 567 229 q 564 243 564 219 q 571 250 571 243 l 571 243 q 565 167 565 207 q 550 97 565 128 q 546 19 542 58 q 558 -59 550 -19 q 571 -137 565 -99 q 571 -215 576 -176 q 535 -206 550 -215 q 508 -181 519 -196 q 494 -122 497 -151 q 491 -62 492 -93 q 487 -3 490 -32 q 474 56 483 26 q 446 117 460 93 q 419 156 432 140 q 394 184 406 172 q 371 212 382 196 q 351 251 360 228 q 335 313 342 274 q 342 228 340 274 q 343 136 344 182 q 336 46 342 90 q 321 -35 331 1 q 305 -96 310 -61 q 299 -167 300 -131 q 302 -237 299 -203 q 314 -299 306 -272 q 317 -313 317 -304 q 316 -331 318 -322 q 308 -347 314 -340 q 293 -354 303 -354 q 243 -301 261 -333 q 210 -236 225 -268 q 203 -216 201 -226 q 206 -195 204 -206 q 210 -174 208 -185 q 203 -153 211 -164 q 183 -162 192 -158 q 168 -160 174 -165 q 164 -153 164 -165 q 165 -122 164 -142 q 168 -76 167 -101 q 171 -26 169 -50 q 172 14 172 -3 q 168 35 171 31 q 142 62 156 50 q 117 85 128 74 q 99 111 106 97 q 92 146 92 125 q 91 190 92 158 q 92 255 90 221 q 97 317 93 289 q 113 354 101 346 q 116 419 118 399 q 109 455 114 439 q 97 491 104 471 q 85 556 90 511 q 68 547 76 553 q 50 535 60 540 q 32 528 40 529 q 15 535 24 526 q -5 622 -6 576 q 1 715 -4 668 q 7 749 7 731 q 8 783 7 767 q 15 815 10 800 q 36 840 21 829 q 51 855 47 846 q 50 875 56 864 q 22 1000 24 938 q 15 1125 21 1063 q 16 1144 13 1135 q 25 1157 19 1153 q 38 1161 31 1161 q 50 1153 44 1161 q 69 1105 63 1129 q 78 1055 75 1081 q 84 1003 82 1029 q 92 951 86 978 q 126 951 115 963 q 135 914 135 933 q 134 875 136 894 q 129 836 132 856 q 126 799 126 817 q 168 757 157 788 q 189 544 189 653 q 189 326 189 436 q 188 309 189 321 q 187 286 188 297 q 186 269 186 275 q 189 271 186 263 q 227 378 210 324 q 265 486 244 433 q 260 540 265 513 q 251 594 256 567 q 244 651 246 622 q 251 708 243 679 q 258 734 251 721 q 274 757 264 747 q 296 769 283 767 q 321 764 308 772 q 330 806 326 779 q 349 847 333 832 q 368 858 357 857 q 390 853 379 860 q 407 836 400 847 q 411 813 414 825 q 406 698 400 754 q 418 583 413 642 q 451 440 433 510 q 481 292 469 371 q 490 385 486 339 q 494 479 494 432 q 494 487 492 475 q 502 519 496 499 q 517 563 508 539 q 533 610 525 588 q 545 651 540 633 q 550 674 550 668 q 535 740 550 718 q 504 781 521 763 q 476 822 488 800 q 474 889 465 844 q 526 931 510 892 q 549 1024 543 971 q 555 1133 556 1078 q 557 1222 554 1189 q 565 1233 557 1238 q 599 1229 572 1229 q 602 1233 601 1224 q 603 1255 603 1242 q 606 1280 604 1268 q 613 1292 607 1292 z "},"x":{"ha":865,"x_min":13,"x_max":767,"o":"m 515 910 q 535 858 535 875 q 526 834 536 842 q 501 826 517 826 q 472 822 486 825 q 449 809 457 818 q 446 778 440 800 q 444 752 449 763 q 432 733 439 742 q 420 716 425 725 q 418 694 415 707 q 424 672 421 679 q 431 656 426 664 q 440 636 435 649 q 453 597 444 624 q 454 535 465 561 q 426 491 443 510 q 396 458 410 472 q 390 431 382 443 q 403 403 399 411 q 413 392 408 396 q 425 388 418 389 q 444 381 432 386 q 474 361 456 375 q 522 319 493 347 q 553 278 551 290 q 547 263 556 267 q 527 259 539 258 q 515 257 515 260 q 532 215 515 233 q 572 181 549 197 q 621 149 596 165 q 661 111 646 132 q 720 50 694 72 q 756 15 746 28 q 758 -9 767 1 q 717 -35 750 -19 q 710 -78 719 -71 q 681 -68 700 -85 q 635 -14 663 -51 q 578 76 608 24 q 518 122 551 82 q 454 210 485 163 q 383 333 418 265 q 386 240 389 278 q 381 210 385 224 q 371 190 378 197 q 353 182 364 182 q 328 194 343 182 q 330 156 325 179 q 339 111 335 132 q 344 77 343 90 q 335 69 344 64 q 292 60 306 75 q 272 19 279 44 q 259 -40 264 -7 q 244 -104 254 -74 q 235 -133 239 -117 q 223 -164 231 -150 q 204 -185 215 -178 q 175 -187 193 -193 q 158 -118 160 -146 q 161 -69 156 -90 q 182 -31 169 -49 q 207 7 194 -12 q 228 49 219 26 q 238 104 238 72 q 242 137 238 122 q 248 166 246 151 q 249 199 250 181 q 238 243 247 217 q 221 290 229 267 q 212 327 213 313 q 222 345 211 342 q 265 333 233 349 q 288 333 286 322 q 284 367 290 344 q 267 420 278 390 q 251 479 257 450 q 235 508 251 488 q 197 556 218 529 q 155 611 175 583 q 126 660 135 639 q 102 697 121 672 q 63 747 83 722 q 28 793 43 772 q 15 819 13 814 q 30 827 15 831 q 71 792 44 824 q 106 745 94 758 q 126 728 118 732 q 138 724 133 724 q 154 715 143 724 q 193 676 164 704 q 254 616 222 647 q 313 559 286 585 q 349 528 340 533 q 357 533 357 524 q 353 556 357 542 q 344 587 350 569 q 337 618 339 604 q 338 640 335 632 q 356 646 342 649 q 363 676 364 656 q 364 717 363 696 q 373 755 365 738 q 404 778 381 772 q 425 853 407 826 q 463 893 443 881 q 515 910 486 908 z "},"y":{"ha":671,"x_min":25,"x_max":542,"o":"m 54 892 q 126 759 94 825 q 199 628 158 693 q 232 594 221 615 q 249 551 243 574 q 260 504 256 528 q 272 461 264 481 q 310 417 294 440 q 329 361 325 393 q 336 359 331 353 q 348 376 342 365 q 360 399 354 388 q 371 415 367 411 q 409 442 392 422 q 424 488 426 461 q 478 556 447 521 q 538 626 508 592 q 537 582 542 603 q 523 542 532 561 q 503 502 514 522 q 482 460 492 482 q 464 399 474 431 q 433 346 454 368 q 424 315 432 331 q 417 276 415 299 q 402 240 414 257 q 378 206 390 222 q 354 171 365 189 q 340 133 343 153 q 328 79 338 106 q 301 38 319 53 q 288 -1 286 17 q 283 -54 289 -19 l 214 -354 q 191 -401 208 -374 q 151 -456 174 -428 q 106 -508 129 -483 q 63 -545 82 -532 q 35 -558 44 -558 q 32 -533 25 -557 q 52 -476 40 -504 q 76 -419 64 -447 q 98 -362 88 -392 q 113 -303 108 -333 q 124 -278 117 -287 q 137 -260 131 -268 q 145 -243 143 -251 q 142 -222 147 -235 q 145 -193 138 -207 q 164 -165 153 -179 q 185 -137 175 -151 q 197 -107 196 -124 q 189 -88 197 -96 q 174 -72 181 -81 q 165 -53 167 -64 q 175 -26 163 -43 q 188 -8 181 -17 q 197 9 194 0 q 196 28 200 18 q 175 53 192 39 q 167 70 163 60 q 185 92 172 81 q 215 117 199 104 q 238 142 231 129 q 244 182 246 160 q 238 227 243 204 q 227 273 232 250 q 225 318 222 296 q 223 326 228 326 q 211 322 218 325 q 197 319 204 319 q 186 329 189 319 q 181 389 189 357 q 156 443 172 421 q 113 518 129 479 q 85 597 96 557 q 66 669 75 633 q 76 732 57 704 q 61 800 74 764 q 39 872 49 836 q 40 890 42 879 q 44 903 39 901 l 54 892 z "},"z":{"ha":900,"x_min":11,"x_max":775,"o":"m 67 1111 q 117 1097 88 1111 q 179 1061 146 1082 q 249 1019 213 1040 q 319 984 285 997 q 384 970 353 971 q 439 990 415 969 q 492 1013 461 1011 q 553 1002 522 1014 q 608 972 583 990 q 643 935 632 953 q 660 941 654 946 q 663 921 665 936 q 660 906 664 910 q 652 900 657 901 q 642 898 647 899 q 632 892 636 897 q 601 820 611 860 q 585 740 592 781 q 571 659 579 699 q 546 588 563 619 q 537 582 543 579 q 524 589 531 585 q 509 597 517 593 q 496 594 501 600 q 471 547 478 579 q 454 482 464 514 q 445 441 449 463 q 437 399 442 419 q 424 358 432 378 q 401 326 415 339 q 356 295 378 315 q 322 249 335 275 q 310 219 315 235 q 299 188 306 203 q 285 163 293 174 q 263 150 276 153 q 247 148 254 153 q 238 135 240 143 q 237 118 235 128 q 246 100 239 108 q 282 81 260 85 q 326 72 304 78 q 378 60 351 67 q 431 48 404 53 q 485 42 458 43 q 538 50 511 42 q 553 67 550 56 q 554 91 556 78 q 550 118 553 104 q 549 143 547 132 q 583 128 565 143 q 619 107 601 113 q 653 84 636 92 q 688 72 671 76 q 723 63 706 67 q 758 50 740 58 q 772 39 768 47 q 773 21 775 31 q 765 2 771 11 q 754 -12 760 -7 q 728 -5 742 -12 q 702 10 715 3 q 674 23 689 18 q 646 22 660 28 q 609 1 629 6 q 568 -4 589 -3 q 526 -8 547 -6 q 486 -21 506 -10 q 408 -41 451 -47 q 319 -12 364 -35 q 276 9 299 3 q 231 15 254 15 q 186 8 208 14 q 142 -6 164 3 q 132 -6 138 -3 q 122 -12 126 -8 q 112 -17 117 -15 q 104 -12 107 -18 q 84 18 101 14 q 51 22 67 22 q 81 49 61 43 q 117 72 101 56 q 144 144 131 107 q 174 217 158 181 q 210 285 190 253 q 256 340 229 317 q 276 356 265 350 q 299 368 288 363 q 322 380 311 374 q 343 397 333 386 q 358 477 353 436 q 369 559 364 518 q 383 639 375 600 q 406 715 390 678 q 456 808 419 774 q 536 864 493 842 q 480 874 506 875 q 424 878 454 872 q 349 906 388 899 q 281 892 311 914 q 234 899 257 900 q 190 894 211 899 q 147 883 168 890 q 106 871 126 876 q 102 894 100 881 q 108 921 104 907 q 112 949 111 935 q 104 976 113 964 q 83 991 94 988 q 58 993 71 994 q 33 987 44 992 q 11 976 21 982 q 19 1042 11 1008 q 40 1104 26 1076 q 52 1110 44 1110 q 67 1111 60 1111 z "},"a":{"ha":468,"x_min":7,"x_max":367,"o":"m 258 1097 q 267 1072 264 1086 q 273 1033 271 1058 q 275 970 275 1008 q 272 875 275 932 q 290 834 281 851 q 308 795 300 817 q 316 740 315 774 q 307 653 317 707 q 310 575 310 614 q 315 502 311 536 q 328 442 319 468 q 356 403 338 415 q 359 307 356 350 q 365 218 363 264 q 364 117 367 172 q 349 -14 361 61 l 265 132 l 244 361 l 196 403 l 140 250 l 113 111 l 57 -49 q 33 -8 36 -37 q 57 83 31 21 q 11 174 15 122 q 20 284 7 226 q 53 403 33 342 q 78 521 72 464 l 99 715 q 89 761 90 733 q 96 814 88 789 q 125 854 104 839 q 182 861 146 869 q 189 958 182 921 q 207 1021 196 996 q 232 1063 218 1046 q 258 1097 246 1079 m 210 785 q 178 675 192 724 q 157 597 167 633 q 147 556 147 561 q 163 588 156 576 q 181 597 171 599 q 203 578 190 594 q 231 528 215 561 l 210 653 l 210 785 z "},"A":{"ha":468,"x_min":7,"x_max":367,"o":"m 258 1097 q 267 1072 264 1086 q 273 1033 271 1058 q 275 970 275 1008 q 272 875 275 932 q 290 834 281 851 q 308 795 300 817 q 316 740 315 774 q 307 653 317 707 q 310 575 310 614 q 315 502 311 536 q 328 442 319 468 q 356 403 338 415 q 359 307 356 350 q 365 218 363 264 q 364 117 367 172 q 349 -14 361 61 l 265 132 l 244 361 l 196 403 l 140 250 l 113 111 l 57 -49 q 33 -8 36 -37 q 57 83 31 21 q 11 174 15 122 q 20 284 7 226 q 53 403 33 342 q 78 521 72 464 l 99 715 q 89 761 90 733 q 96 814 88 789 q 125 854 104 839 q 182 861 146 869 q 189 958 182 921 q 207 1021 196 996 q 232 1063 218 1046 q 258 1097 246 1079 m 210 785 q 178 675 192 724 q 157 597 167 633 q 147 556 147 561 q 163 588 156 576 q 181 597 171 599 q 203 578 190 594 q 231 528 215 561 l 210 653 l 210 785 z "},"B":{"ha":681,"x_min":-10,"x_max":593,"o":"m 210 1285 q 245 1273 231 1285 q 265 1250 260 1261 q 265 1205 275 1226 q 237 1162 254 1183 q 202 1118 219 1140 q 182 1069 185 1096 q 185 1033 179 1051 q 198 995 190 1014 q 213 957 206 976 q 224 917 221 938 q 219 808 226 864 q 199 699 211 753 q 175 598 188 646 q 154 514 163 550 q 154 488 151 499 q 160 468 157 476 q 165 453 164 460 q 161 438 167 446 q 151 383 153 411 q 151 334 149 356 q 161 301 153 313 q 182 299 169 290 q 262 340 218 322 q 344 371 306 358 q 410 390 383 383 q 439 396 436 396 q 438 399 447 393 q 414 413 428 404 q 389 433 400 422 q 383 451 378 443 q 419 477 392 472 q 478 477 446 482 q 542 459 511 472 q 585 431 572 446 q 586 413 593 422 q 569 394 579 404 q 552 372 560 383 q 550 347 544 360 q 578 220 576 282 q 552 111 579 158 q 466 38 525 64 q 314 21 407 13 q 249 10 281 24 q 187 -8 217 -3 q 128 4 157 -12 q 71 83 100 21 q 52 107 65 96 q 26 130 39 118 q 1 156 13 142 q -9 190 -10 171 q 6 233 -8 208 q 57 292 21 258 q 60 353 57 324 q 66 405 63 378 q 78 451 69 432 q 98 556 88 496 q 115 678 108 615 q 126 802 122 742 q 126 910 129 863 q 120 944 126 931 q 106 968 114 958 q 94 985 99 978 q 92 1000 89 992 q 113 1077 104 1039 q 132 1151 122 1115 q 155 1217 142 1186 q 189 1271 168 1247 q 199 1281 194 1276 q 210 1285 204 1285 m 467 347 q 452 339 461 347 q 434 319 443 331 q 418 294 425 308 q 411 271 411 281 q 414 249 411 260 q 419 231 417 239 q 423 217 422 222 q 418 215 424 213 q 401 228 407 218 q 390 249 396 238 q 378 269 385 260 q 363 278 372 278 q 320 272 343 283 q 275 244 297 260 q 224 201 250 226 q 195 181 208 193 q 178 153 182 168 q 183 119 175 138 q 217 83 190 101 q 251 76 229 75 q 296 81 272 76 q 344 94 319 86 q 390 111 369 103 q 428 121 406 117 q 470 132 450 125 q 502 149 490 139 q 508 174 514 158 q 496 205 503 183 q 483 251 489 226 q 474 298 478 275 q 474 333 471 321 q 467 347 474 347 z "},"C":{"ha":697,"x_min":14,"x_max":567,"o":"m 22 243 q 19 280 14 258 q 38 328 25 301 q 67 385 51 354 q 97 448 83 415 q 115 515 110 481 q 113 583 121 549 q 103 676 100 631 q 123 758 106 721 q 169 823 140 796 q 238 861 199 850 q 254 927 240 897 q 288 978 268 957 q 329 1010 307 999 q 369 1021 351 1021 q 392 1011 381 1021 q 404 986 404 1001 q 472 976 440 983 q 524 959 500 969 q 557 931 549 949 q 548 881 567 894 q 497 861 529 867 q 426 852 464 856 q 363 833 389 849 q 349 822 351 831 q 347 800 347 813 q 347 774 347 788 q 342 750 347 760 q 318 697 335 721 q 283 650 301 672 q 248 606 264 628 q 225 558 232 583 q 224 501 218 532 q 258 431 231 471 q 214 323 229 368 q 194 248 199 278 q 192 202 189 218 q 203 181 194 186 q 232 174 221 168 q 254 194 243 181 q 280 225 265 208 q 321 250 294 242 l 390 264 q 408 254 403 265 q 417 229 414 243 q 426 201 421 215 q 444 185 432 188 q 478 194 457 182 q 536 243 500 207 q 551 231 546 256 q 547 172 556 207 q 514 104 539 136 q 439 69 489 72 q 406 49 418 67 q 382 19 394 32 q 351 7 369 6 q 300 42 333 8 q 284 35 292 50 q 270 -7 276 21 q 257 -68 264 -35 q 242 -130 250 -101 q 224 -176 233 -158 q 203 -187 215 -193 q 192 -172 194 -185 q 186 -142 189 -160 q 176 -104 183 -124 q 154 -69 169 -85 q 127 -15 131 -43 q 127 38 124 14 q 133 78 131 61 q 126 97 136 94 q 96 97 113 100 q 66 94 79 94 q 45 101 53 94 q 41 130 38 107 q 63 196 44 153 q 119 313 81 239 q 116 309 128 322 q 86 278 104 296 q 49 246 68 260 q 22 243 31 232 z "},"D":{"ha":601,"x_min":-86,"x_max":385,"o":"m 328 1299 q 342 1292 342 1299 l 363 1111 l 335 924 q 374 869 368 903 q 372 799 379 836 q 353 722 365 761 q 342 653 342 683 q 379 557 374 617 q 369 424 385 497 q 353 271 357 350 q 349 125 350 192 q 344 15 347 58 q 328 -28 340 -28 q 324 -26 325 -28 q 321 -21 321 -24 q 310 42 315 15 q 297 89 304 68 q 281 128 290 110 q 258 167 271 146 q 249 112 253 132 q 237 82 244 92 q 217 69 229 72 q 185 66 206 67 q 133 64 164 65 q 57 56 101 63 q 35 63 46 57 q 16 73 25 67 q 1 90 7 79 q -10 122 -10 103 q -6 158 -10 140 q 8 201 0 179 q -39 291 -12 246 q -76 382 -65 336 q -70 473 -86 428 q 8 563 -54 518 q 34 613 26 583 q 54 668 42 643 q 91 705 67 693 q 168 701 115 717 l 244 715 l 279 1049 q 285 1135 282 1090 q 293 1215 288 1179 q 307 1275 299 1251 q 328 1299 315 1299 m 168 569 q 154 553 163 569 q 138 517 146 538 q 122 475 129 496 q 113 444 115 454 q 106 428 113 433 q 90 417 99 422 q 74 405 82 411 q 64 389 67 399 q 71 330 58 357 q 99 271 83 303 q 115 258 110 260 q 126 257 121 257 q 154 267 142 257 q 182 292 167 276 q 200 305 192 301 q 216 309 208 308 q 230 313 224 310 q 244 326 236 315 q 251 349 247 335 q 257 378 254 363 q 260 408 260 394 q 258 431 261 422 q 238 452 250 439 q 212 483 225 465 q 188 522 199 501 q 175 563 178 542 l 168 569 z "},"E":{"ha":736,"x_min":28,"x_max":599,"o":"m 467 743 q 527 729 508 751 q 553 672 546 707 q 561 597 560 636 q 571 528 563 557 q 565 505 564 517 q 566 481 565 493 q 563 459 567 469 q 543 443 560 449 q 494 438 526 438 q 404 447 461 439 q 381 415 393 432 q 353 388 369 399 q 315 378 336 378 q 265 396 294 378 l 189 333 l 238 63 l 369 49 l 481 56 l 515 208 l 557 188 l 599 257 l 564 28 q 497 -14 525 1 q 449 -35 469 -29 q 411 -37 428 -42 q 376 -21 394 -33 q 274 -59 311 -47 q 217 -73 236 -71 q 191 -72 197 -75 q 182 -62 185 -68 q 165 53 179 -3 q 129 156 150 110 q 84 238 108 203 q 36 292 60 274 q 28 308 28 297 q 34 333 29 319 q 47 361 39 346 q 64 389 56 376 q 49 475 61 431 q 37 562 38 519 q 57 642 36 604 q 140 708 78 679 q 132 755 122 739 q 169 778 142 771 q 233 788 196 786 q 307 792 271 789 l 467 743 m 342 681 q 290 674 310 681 q 265 653 271 668 l 217 604 l 147 556 l 168 479 q 248 467 207 474 q 326 463 289 461 q 397 481 364 465 q 453 535 429 496 q 420 561 429 544 q 410 597 411 578 q 415 635 410 615 q 425 674 419 656 q 378 677 399 674 q 342 681 357 681 z "},"F":{"ha":740,"x_min":-78,"x_max":538,"o":"m -78 329 q -31 335 -57 335 q 24 332 -4 335 q 41 344 29 340 q 64 357 53 349 q 82 382 75 365 q 85 432 89 399 l 89 468 q 71 481 82 468 q 40 528 47 507 q 33 569 32 550 q 41 608 33 589 q 57 647 49 626 q 66 692 65 668 q 65 742 67 717 q 60 792 63 767 q 57 842 57 818 q 18 928 18 901 q 43 962 18 954 q 110 965 68 969 q 198 956 153 960 q 285 954 243 951 q 349 981 326 957 q 455 962 408 976 q 519 929 501 947 q 521 892 538 911 q 439 863 504 874 q 358 863 379 857 q 332 873 336 868 q 328 878 328 878 q 314 863 329 878 q 288 854 308 860 q 247 840 268 849 q 209 820 225 832 q 196 793 193 808 q 199 746 203 765 q 187 708 194 726 q 171 667 179 689 q 161 615 163 646 q 168 540 160 585 q 203 432 176 496 q 230 475 221 478 q 240 444 239 472 q 233 374 240 417 q 215 297 226 332 q 312 294 269 290 q 385 303 354 297 q 438 316 417 310 q 472 319 460 322 q 490 302 485 317 q 494 254 496 288 q 476 246 494 247 q 433 243 458 244 q 384 238 408 242 q 349 219 360 233 l 182 181 q 176 160 179 167 q 166 35 161 85 q 168 -35 171 -15 q 160 -60 160 -56 q 168 -69 160 -65 q 192 -81 176 -72 q 231 -118 207 -89 q 242 -134 240 -131 q 240 -139 243 -137 q 231 -144 236 -140 q 224 -161 226 -149 q 231 -222 218 -197 q 256 -267 243 -247 q 272 -306 268 -287 q 251 -349 275 -325 q 219 -404 240 -386 q 176 -410 197 -422 q 140 -349 154 -397 q 133 -207 126 -301 q 109 -126 118 -165 q 95 -53 100 -87 q 87 10 90 -19 q 78 64 83 40 q 64 115 63 90 q 72 163 65 139 q 15 185 46 171 l -78 329 z "},"G":{"ha":729,"x_min":-49,"x_max":568,"o":"m 175 785 q 193 758 188 782 q 208 708 199 735 q 235 660 217 681 q 293 646 254 640 q 331 622 311 646 q 365 568 351 599 q 379 508 378 538 q 363 465 381 478 q 353 445 347 454 q 374 425 358 436 q 406 400 389 414 q 432 368 424 386 q 439 317 440 344 q 432 262 438 289 q 420 210 426 235 q 411 167 414 185 q 444 108 438 146 q 457 19 450 69 q 482 -93 464 -32 q 550 -222 500 -154 q 556 -272 568 -246 q 518 -323 544 -299 q 458 -369 492 -347 q 397 -403 424 -390 q 313 -437 358 -424 q 220 -454 267 -451 q 128 -449 174 -457 q 43 -417 82 -440 q -12 -355 7 -396 q -40 -278 -31 -314 q -46 -218 -43 -251 q -46 -155 -49 -185 q -33 -104 -43 -125 q 1 -83 -22 -83 q 56 -99 40 -83 q 72 -137 72 -115 q 57 -183 71 -160 q 22 -222 43 -207 q 2 -258 -3 -239 q 28 -291 7 -276 q 79 -314 49 -306 q 138 -319 110 -322 q 185 -301 165 -317 q 203 -250 204 -285 q 213 -235 201 -236 q 245 -240 225 -235 q 290 -255 265 -246 q 338 -270 315 -264 q 379 -276 361 -276 q 404 -264 397 -276 q 422 -199 425 -235 q 406 -123 419 -162 q 377 -42 393 -83 q 356 35 361 -1 q 294 14 317 14 q 254 26 271 14 q 224 56 238 38 q 189 90 210 75 q 146 103 171 100 q 95 113 121 107 q 44 135 69 119 q 1 188 19 151 q 11 245 -1 214 q 40 304 24 276 q 85 368 60 336 q 85 457 90 419 q 72 526 79 494 q 60 587 64 557 q 64 653 56 617 q 117 756 85 726 q 175 785 149 785 m 224 590 q 187 565 194 588 q 180 513 179 543 q 184 449 181 482 q 182 389 188 415 q 167 332 179 363 q 145 272 154 301 q 137 218 136 243 q 161 181 138 193 q 194 174 176 169 q 228 190 211 178 q 258 218 244 201 q 279 250 271 235 q 290 293 289 271 q 288 337 292 315 q 277 381 283 358 q 265 424 271 403 q 264 473 263 444 q 263 528 265 501 q 253 572 261 554 q 224 590 244 590 z "},"H":{"ha":815,"x_min":17,"x_max":685,"o":"m 119 1354 q 138 1342 138 1354 q 133 1314 139 1331 q 123 1278 128 1297 q 126 1243 118 1258 l 133 1243 q 166 1207 160 1243 q 169 1118 172 1171 q 160 1003 167 1065 q 154 889 154 940 l 182 743 q 208 735 194 740 q 235 725 221 729 q 263 719 249 721 q 293 722 278 717 q 342 794 324 774 q 368 815 360 814 q 379 801 376 815 q 383 766 382 786 q 388 725 385 746 q 399 693 390 704 q 424 685 407 682 q 474 715 442 688 q 535 651 515 675 q 561 615 554 628 q 568 594 568 601 q 572 580 568 586 q 586 564 575 574 q 626 535 597 554 q 633 498 642 517 q 608 456 625 479 q 576 405 592 433 q 564 340 561 376 q 542 364 546 361 q 540 361 538 367 q 551 348 543 356 q 564 340 558 340 q 590 310 575 329 q 626 264 606 290 q 672 172 660 222 q 683 76 685 121 q 668 2 681 32 q 640 -28 656 -28 q 624 -35 638 -33 q 594 -34 610 -36 q 569 -27 579 -32 q 564 -14 558 -22 q 575 36 567 10 q 588 88 583 63 q 588 135 592 113 q 564 174 585 158 q 526 194 543 179 q 508 236 508 210 q 485 340 497 289 q 488 444 472 392 q 455 518 476 483 q 406 574 433 553 q 349 600 379 596 q 293 583 319 604 q 238 546 260 581 q 208 457 217 511 q 201 336 199 403 q 217 201 204 269 q 232 135 222 168 q 251 74 242 103 q 266 22 260 44 q 271 -16 272 -1 q 257 -35 269 -31 q 217 -28 244 -39 q 190 -6 204 -19 q 160 10 175 7 q 130 1 146 14 q 99 -56 114 -11 l 92 111 l 113 306 l 99 319 q 78 389 78 350 q 52 430 63 410 q 36 465 42 450 q 33 546 28 499 q 46 638 38 593 q 71 743 56 689 q 68 842 74 788 q 55 953 63 897 q 40 1062 47 1010 q 29 1153 32 1114 q 20 1247 24 1213 q 19 1299 17 1281 q 33 1324 21 1317 q 71 1340 44 1332 q 100 1350 86 1346 q 119 1354 114 1354 z "},"I":{"ha":413,"x_min":4,"x_max":251,"o":"m 119 1278 l 189 1250 q 223 1214 210 1235 q 232 1160 236 1193 q 202 1074 228 1126 q 119 944 176 1022 q 69 985 92 964 q 34 1023 50 1003 q 15 1063 18 1043 q 15 1110 10 1083 q 28 1160 19 1136 q 50 1215 36 1186 q 31 1257 42 1236 q 17 1299 19 1278 q 29 1340 15 1319 q 85 1382 43 1361 l 119 1278 m 189 743 l 161 521 q 197 474 181 497 q 226 431 213 454 q 244 389 239 407 q 247 308 251 354 q 235 217 243 261 q 210 111 225 165 q 201 10 200 54 q 209 -68 203 -35 q 221 -124 215 -101 q 224 -160 226 -146 q 208 -178 222 -174 q 158 -182 193 -183 q 120 -178 129 -182 q 111 -160 111 -175 q 117 -117 111 -146 q 126 -35 124 -87 l 92 132 q 71 138 81 135 q 58 158 61 142 q 64 206 56 174 q 99 299 72 239 l 92 650 q 76 615 85 629 q 59 597 69 604 q 36 597 49 589 q 13 623 21 606 q 5 662 6 640 q 8 708 4 683 q 18 758 11 733 q 64 882 33 815 q 91 860 76 874 q 120 844 106 847 q 151 853 135 840 q 182 910 167 865 l 189 743 z "},"J":{"ha":621,"x_min":15,"x_max":396,"o":"m 144 1186 q 193 1168 171 1186 q 221 1103 215 1150 l 283 1082 q 303 1003 307 1028 q 283 965 300 978 q 242 944 267 953 q 200 915 218 936 q 158 890 176 899 q 128 883 143 883 q 110 901 113 882 q 99 948 106 921 q 85 1003 92 975 q 68 1068 76 1033 q 44 1100 44 1081 q 59 1138 44 1119 q 97 1169 74 1156 q 144 1186 121 1183 m 199 808 q 233 778 219 790 q 256 742 246 765 q 275 678 265 719 q 297 561 285 636 q 333 517 317 539 q 362 476 349 497 q 381 436 375 454 q 387 347 388 401 q 382 240 386 293 q 367 111 376 179 q 378 10 372 57 q 389 -83 385 -37 q 394 -174 393 -128 q 390 -271 396 -219 q 353 -394 379 -342 q 296 -477 328 -446 q 231 -517 264 -508 q 175 -507 199 -525 q 138 -461 157 -494 q 98 -370 118 -428 q 57 -230 78 -312 q 15 -35 36 -147 q 45 -16 25 -6 q 87 -65 65 -26 q 127 -165 108 -104 q 154 -299 146 -226 q 169 -335 157 -322 q 199 -353 181 -347 q 238 -358 217 -358 q 279 -354 258 -357 q 276 -181 281 -264 q 272 -109 275 -146 q 265 -38 269 -72 q 253 26 260 -4 q 238 76 246 56 l 203 243 q 182 253 192 249 q 169 274 172 258 q 175 322 167 290 q 210 410 183 353 q 206 486 214 463 q 188 519 199 510 q 165 532 176 529 q 148 544 153 535 q 147 574 143 553 q 172 644 151 596 q 149 664 157 653 q 141 688 142 675 q 144 714 140 700 q 154 742 147 728 q 199 808 169 774 z "},"K":{"ha":753,"x_min":6,"x_max":613,"o":"m 175 1313 q 210 1262 204 1294 q 210 1190 217 1229 q 191 1106 204 1150 q 168 1021 178 1063 q 201 984 189 1006 q 215 939 213 963 q 211 892 218 915 q 189 847 204 868 q 170 806 176 832 q 165 757 164 781 q 175 718 165 733 q 203 708 185 703 q 253 740 233 717 q 289 789 274 764 q 317 834 304 814 q 349 854 331 854 l 369 826 q 444 947 413 901 q 497 1019 475 993 q 535 1057 519 1046 q 564 1073 551 1068 q 588 1080 576 1078 q 613 1090 599 1082 l 529 951 q 479 897 506 922 q 430 842 453 871 q 392 780 407 814 q 376 701 376 746 q 353 666 374 681 q 307 635 332 651 q 261 597 282 618 q 238 542 240 575 q 256 477 238 501 q 298 435 274 453 q 348 401 322 417 q 390 361 374 385 l 446 188 q 475 185 465 206 q 490 119 485 164 q 494 14 494 75 q 494 -112 494 -47 q 495 -240 494 -178 q 501 -347 496 -303 q 499 -381 504 -368 q 486 -397 494 -394 q 467 -387 478 -399 q 446 -347 456 -376 l 404 -201 q 380 -116 393 -165 q 356 -22 367 -67 q 328 83 342 29 q 306 176 317 131 q 281 264 296 222 q 248 341 267 306 q 203 403 229 376 l 182 361 l 168 382 q 138 183 163 272 q 92 35 113 93 q 83 -22 89 3 q 68 -59 78 -43 q 43 -69 58 -75 q 56 24 51 -25 q 67 128 61 74 q 81 243 72 183 q 106 368 90 303 l 78 424 l 106 618 q 103 623 107 631 q 90 598 99 615 q 72 558 82 581 q 51 516 61 535 q 33 488 42 497 q 22 486 25 478 q 6 564 7 525 q 13 640 6 603 q 31 715 19 678 q 50 785 42 751 q 58 833 54 799 q 68 913 63 868 q 79 1010 74 958 q 92 1110 85 1061 q 106 1199 99 1158 q 120 1264 113 1240 q 136 1290 128 1288 q 154 1264 144 1293 l 175 1313 l 175 1313 z "},"L":{"ha":642,"x_min":10,"x_max":529,"o":"m 238 1278 q 258 1235 261 1254 q 242 1197 254 1217 q 217 1151 229 1176 q 210 1090 204 1126 q 234 1034 215 1064 q 258 972 253 1004 q 251 947 261 957 q 228 926 240 936 q 209 904 217 917 q 210 871 201 892 q 203 828 213 858 q 187 753 193 797 q 184 656 181 710 q 217 542 188 601 q 223 547 219 536 q 231 569 226 557 q 238 592 235 582 q 244 597 242 603 q 263 548 263 574 q 255 496 264 522 q 231 442 246 469 q 203 389 215 415 q 168 281 176 325 q 161 206 160 236 q 171 153 163 175 q 187 113 179 132 q 199 75 194 94 q 196 28 203 56 q 207 15 193 13 q 240 25 221 17 q 276 42 258 33 q 300 49 294 51 q 317 19 315 33 q 325 -7 318 4 q 356 -27 332 -18 q 439 -42 379 -36 q 488 -80 465 -68 q 519 -101 510 -92 q 522 -122 529 -110 q 481 -160 514 -133 q 475 -219 486 -204 q 444 -228 464 -233 q 398 -203 424 -222 q 349 -160 372 -183 q 305 -187 329 -192 q 257 -167 281 -183 q 203 -111 231 -147 q 103 -143 149 -132 q 33 -147 57 -154 q 13 -110 10 -139 q 57 -21 15 -81 q 60 28 57 3 q 65 79 63 54 q 66 128 67 104 q 57 174 65 153 q 41 213 49 194 q 33 251 33 232 q 40 292 32 271 q 71 340 47 314 q 92 353 86 356 q 97 347 97 350 q 92 349 96 343 q 85 389 88 356 q 82 440 90 424 q 61 465 74 457 q 37 478 49 474 q 22 493 25 483 q 31 523 19 503 q 78 583 43 543 q 83 615 88 596 q 73 658 79 635 q 65 706 67 681 q 78 757 63 731 q 87 810 83 781 q 95 874 90 840 q 109 947 100 908 q 133 1028 118 986 q 149 1149 133 1101 q 185 1225 165 1196 q 238 1278 208 1258 z "},"M":{"ha":926,"x_min":-49,"x_max":775,"o":"m 669 1292 q 665 1203 675 1258 q 646 1092 656 1149 q 635 988 636 1036 q 654 918 633 939 q 664 822 663 869 q 664 726 665 775 q 660 629 663 678 q 661 531 658 581 q 672 535 661 536 q 683 525 683 535 q 685 449 686 493 q 682 356 683 404 q 681 264 681 308 q 690 189 682 219 q 694 178 690 174 q 704 189 699 183 q 733 188 721 199 q 740 163 746 178 q 731 97 738 122 q 715 49 724 72 q 697 1 706 26 q 683 -65 689 -25 q 705 -53 689 -56 q 726 -65 721 -50 q 737 -106 735 -85 q 739 -149 739 -126 q 738 -193 739 -171 q 740 -236 738 -215 q 747 -338 746 -285 q 769 -440 747 -392 q 774 -491 775 -464 q 747 -528 774 -518 q 731 -526 736 -531 q 723 -515 725 -522 q 720 -499 721 -508 q 719 -483 719 -490 q 715 -497 717 -489 q 709 -510 713 -504 q 699 -521 706 -517 q 683 -522 693 -525 q 677 -502 678 -512 q 677 -481 676 -492 q 678 -458 678 -469 q 676 -433 679 -446 q 655 -319 671 -375 q 633 -206 639 -262 q 611 -101 625 -153 q 583 4 597 -49 q 558 109 569 57 q 540 214 546 161 q 542 230 543 221 q 542 247 542 239 q 544 264 542 256 q 554 276 546 272 q 569 271 563 276 q 581 260 576 265 q 590 255 586 256 q 597 264 594 254 q 585 423 597 346 q 561 582 572 500 q 538 439 550 510 q 504 296 526 368 q 471 163 482 229 q 454 29 460 96 q 452 -34 449 -4 q 461 -97 456 -64 q 461 -114 464 -104 q 452 -131 458 -124 q 435 -142 446 -139 q 411 -142 425 -146 q 391 -119 397 -132 q 382 -92 385 -107 q 378 -63 379 -78 q 375 -33 378 -49 q 367 -24 375 -19 q 354 -33 360 -29 q 310 -34 332 -49 q 282 4 288 -19 q 272 71 271 38 q 280 138 274 104 q 294 204 286 171 q 304 271 301 238 q 258 374 276 319 q 218 481 240 428 q 199 528 204 504 q 190 578 193 553 q 182 628 186 603 q 168 676 178 653 l 168 417 q 171 201 174 311 q 146 -15 168 90 q 143 -35 146 -25 q 134 -54 140 -46 q 119 -66 128 -62 q 96 -65 110 -69 q 95 -112 93 -89 q 99 -158 97 -135 q 101 -203 101 -181 q 96 -250 101 -226 q 75 -258 90 -264 q 53 -243 60 -253 q 35 -347 38 -296 q 18 -446 33 -397 q 13 -462 15 -453 q 8 -478 11 -471 q -1 -489 6 -485 q -18 -490 -7 -493 q -30 -458 -35 -475 q -25 -421 -25 -440 q -17 -332 -19 -378 q -4 -243 -15 -286 q 15 -190 1 -215 q 18 -135 28 -164 q -18 -117 -4 -131 q -32 -85 -32 -104 q -40 -17 -35 -54 q -47 57 -44 19 q -46 130 -49 94 q -32 194 -43 165 q -10 204 -29 211 q 28 187 8 197 q 63 172 49 176 q 68 189 76 167 q 68 607 89 397 q 48 621 57 611 q 39 644 39 631 q 34 751 28 697 q 68 854 40 806 q 78 872 71 864 q 96 886 86 881 q 117 892 106 892 q 139 886 128 893 q 143 877 142 883 q 146 867 144 871 q 149 863 147 863 q 154 874 151 864 q 183 869 169 883 q 196 842 196 856 q 216 876 207 861 q 225 911 225 892 q 217 941 219 926 q 225 975 214 956 q 264 1036 242 1003 q 318 1089 286 1069 q 331 1090 326 1093 q 336 1081 335 1088 q 336 1066 338 1075 q 332 1050 335 1057 q 315 1003 326 1026 q 292 955 304 979 q 273 906 281 931 q 268 854 265 881 q 283 798 274 825 q 304 743 293 771 q 327 688 315 715 q 347 632 339 661 q 365 531 364 582 q 361 429 365 481 q 353 327 357 378 q 354 226 349 276 q 374 270 361 251 q 397 316 386 289 q 417 385 408 343 q 428 499 426 426 q 453 613 439 553 q 484 733 467 672 q 521 851 501 793 q 561 963 540 910 q 581 1020 575 990 q 590 1080 588 1050 q 594 1141 593 1110 q 597 1203 594 1172 q 604 1233 600 1217 q 617 1262 608 1249 q 638 1283 625 1275 q 669 1292 650 1292 z "},"N":{"ha":926,"x_min":3,"x_max":754,"o":"m 640 1104 q 690 1043 672 1078 q 724 972 708 1008 q 732 941 735 957 q 724 910 729 925 q 742 814 733 863 q 753 724 751 765 q 745 655 754 683 q 710 618 736 626 q 690 592 689 613 q 699 544 690 571 q 719 488 708 517 q 731 438 731 458 q 722 377 733 406 q 695 319 710 349 q 667 261 681 290 q 654 201 654 232 q 661 121 654 165 q 676 31 668 76 q 687 -58 683 -14 q 682 -139 690 -103 q 654 -174 676 -160 q 606 -174 632 -189 q 587 -187 590 -165 q 584 -240 583 -208 q 585 -303 585 -271 q 578 -347 586 -335 q 538 -333 551 -353 q 529 -292 524 -312 q 518 -215 533 -251 q 480 -144 503 -178 q 432 -82 457 -111 q 388 -28 407 -53 q 364 15 369 -4 q 376 49 358 35 q 394 94 400 67 q 369 151 388 121 q 326 210 350 181 q 293 264 303 240 q 242 301 267 279 q 200 353 218 322 q 174 428 182 385 q 175 528 167 471 q 153 358 164 444 q 147 188 142 271 q 151 174 147 175 q 159 178 154 174 q 170 188 164 182 q 182 194 176 194 q 195 181 192 189 q 199 163 199 172 q 197 143 199 153 q 196 125 196 133 q 160 -32 181 42 q 133 -174 139 -106 q 117 -318 128 -278 q 95 -360 107 -358 q 73 -339 83 -362 q 57 -292 63 -315 q 56 -241 51 -274 q 68 -172 61 -208 q 81 -101 75 -136 q 85 -42 88 -65 q 67 35 79 -8 q 41 117 54 78 q 18 185 28 156 q 8 222 8 214 q 15 249 3 238 q 43 250 28 261 q 53 240 49 244 q 57 250 57 235 q 62 310 63 283 q 59 361 61 336 q 56 413 57 386 q 57 472 54 439 q 71 478 63 478 q 85 479 79 479 q 74 554 85 514 q 51 635 64 594 q 27 717 38 676 q 17 792 17 757 q 31 856 17 828 q 85 903 46 885 q 86 1014 83 975 q 96 1065 89 1053 q 113 1069 103 1078 q 133 1042 122 1061 q 157 995 144 1022 q 182 944 169 968 q 262 718 224 829 q 321 486 300 607 q 365 407 331 444 q 436 333 399 369 q 503 257 474 296 q 536 174 533 218 q 560 244 542 213 q 590 312 578 276 q 599 393 603 347 q 557 507 596 439 q 553 533 549 519 q 567 558 557 546 q 589 579 576 569 q 613 597 601 589 q 568 783 574 714 q 577 881 563 853 q 621 899 592 910 q 682 847 650 889 q 677 903 685 876 q 658 955 669 929 q 636 1007 647 981 q 619 1063 625 1033 q 615 1089 614 1074 q 626 1104 615 1104 l 640 1104 z "},"O":{"ha":544,"x_min":-6,"x_max":476,"o":"m 283 643 q 310 631 300 643 q 317 585 321 618 q 340 535 317 557 q 390 494 363 514 q 444 452 418 474 q 474 404 469 431 q 469 348 476 382 q 453 282 461 314 q 429 203 442 244 q 449 162 446 186 q 445 107 451 138 q 428 43 439 76 q 406 -25 417 10 q 360 -115 390 -87 q 306 -143 331 -143 q 283 -122 290 -143 q 267 -76 276 -101 q 238 -32 257 -51 q 182 -17 219 -12 q 118 0 138 -18 q 89 53 99 18 q 74 135 79 88 q 54 242 68 183 q 28 314 47 276 q 2 388 10 351 q 8 459 -6 424 q 81 525 22 494 q 156 565 119 549 q 221 608 192 582 q 283 643 254 643 m 306 419 q 290 408 297 419 q 274 380 282 396 q 259 348 267 364 q 242 324 251 332 q 223 321 233 317 q 200 350 213 325 q 188 353 189 368 q 190 308 186 338 q 200 243 194 278 q 210 189 206 208 q 213 142 214 169 q 214 91 213 115 q 224 51 215 67 q 256 38 232 35 q 325 85 310 38 q 294 218 340 133 q 289 252 286 233 q 299 290 292 271 q 316 328 307 310 q 330 364 325 347 q 331 393 335 381 q 311 413 328 406 q 306 419 311 419 z "},"P":{"ha":582,"x_min":-7,"x_max":467,"o":"m 64 743 q 72 676 67 704 q 85 627 76 649 q 103 588 93 606 q 126 549 114 569 q 138 622 132 600 q 161 649 143 643 q 216 653 179 654 q 321 660 253 651 q 344 654 333 658 q 383 632 367 647 q 393 597 394 617 q 386 561 392 578 q 369 521 381 542 q 417 427 390 474 q 456 334 444 381 q 451 242 467 288 q 369 153 435 197 q 347 102 354 132 q 326 48 339 72 q 287 13 313 24 q 210 21 261 3 l 140 0 l 99 -333 q 97 -426 99 -378 q 88 -512 94 -475 q 69 -569 82 -550 q 36 -576 57 -589 l 22 -396 l 43 -208 q 8 -150 11 -185 q 12 -77 4 -115 q 31 -1 19 -39 q 43 69 43 38 q 2 160 11 101 q 8 299 -7 219 q 24 450 21 371 q 29 594 28 529 q 34 701 31 658 q 50 743 38 743 l 64 743 m 251 465 q 227 453 240 465 q 203 431 214 442 q 183 417 192 419 q 166 412 174 414 q 152 406 158 410 q 140 389 146 401 q 130 367 135 381 q 123 337 125 353 q 121 307 121 321 q 126 285 121 293 q 144 263 132 276 q 168 232 156 250 q 192 194 181 214 q 210 153 204 174 q 222 152 213 140 q 240 186 231 164 q 258 233 250 208 q 265 271 265 258 q 273 287 265 281 q 290 299 281 293 q 309 313 300 306 q 321 333 318 321 q 308 392 321 365 q 279 444 294 418 q 268 460 274 456 q 251 465 263 465 z "},"Q":{"ha":899,"x_min":6,"x_max":778,"o":"m 439 882 q 446 875 446 882 q 478 859 469 875 q 501 818 488 843 q 545 764 515 793 q 640 708 575 735 q 657 635 656 668 q 652 572 658 603 q 633 512 646 542 q 610 449 621 482 q 591 375 599 415 q 585 285 583 335 q 578 214 590 249 q 550 153 565 179 q 597 120 576 132 q 613 97 618 108 q 614 59 604 76 q 643 26 624 42 q 687 -3 663 11 q 732 -33 711 -18 q 765 -66 753 -49 q 772 -104 778 -83 q 697 -77 731 -99 q 626 -35 663 -56 q 532 32 558 1 q 494 83 506 63 q 411 17 453 47 q 349 -35 369 -14 q 294 -85 319 -67 q 251 -104 269 -103 q 224 -87 233 -106 q 217 -28 214 -69 q 202 16 217 -1 q 165 47 188 33 q 117 72 143 61 q 69 97 92 83 q 28 126 46 110 q 8 167 11 142 q 15 249 6 199 q 38 350 25 300 q 71 472 53 407 q 44 522 47 488 q 47 600 40 556 q 67 698 54 644 q 92 806 81 751 q 110 848 100 836 q 132 858 121 860 q 156 847 143 857 q 181 825 168 836 q 206 806 193 814 q 231 799 218 797 q 258 808 249 804 q 283 820 268 813 q 322 839 297 828 q 397 868 347 850 q 423 875 413 874 q 439 882 433 876 m 376 743 q 320 725 350 743 q 262 684 290 707 q 208 638 233 661 q 168 604 183 614 q 166 549 165 586 q 168 473 167 513 q 170 398 169 433 q 168 347 171 363 q 180 258 163 300 q 224 174 197 215 q 265 153 244 153 q 301 167 281 153 q 342 201 321 181 l 356 215 q 324 242 344 225 q 284 279 304 260 q 249 319 264 299 q 238 354 235 339 q 243 392 246 378 q 236 417 240 407 q 232 431 232 426 q 244 438 232 435 q 275 413 260 425 q 302 390 288 401 q 328 368 317 379 q 356 322 343 347 q 390 285 369 296 q 432 264 421 274 q 453 301 440 276 q 478 354 465 326 q 502 407 492 382 q 515 444 513 432 q 475 520 489 475 q 451 608 461 565 q 432 684 442 650 q 404 729 422 718 q 393 739 399 735 q 376 743 388 743 z "},"R":{"ha":597,"x_min":0,"x_max":469,"o":"m 64 1125 q 74 1046 69 1086 q 83 968 78 1006 q 94 899 88 931 q 113 847 101 868 q 148 952 124 894 q 231 1083 172 1010 q 247 1064 240 1075 q 261 1044 253 1053 q 284 1033 269 1036 q 328 1042 299 1031 q 351 1036 340 1040 q 390 1014 374 1029 q 397 979 397 999 q 392 943 396 960 q 376 903 386 924 q 423 809 397 856 q 459 716 449 763 q 454 624 469 669 q 376 535 439 579 l 217 403 q 273 335 246 369 q 317 268 300 301 q 336 202 335 235 q 314 139 338 169 q 354 86 336 111 q 384 39 369 64 q 404 -7 399 14 q 407 -56 410 -28 q 400 -115 404 -83 q 392 -179 396 -146 q 390 -243 388 -212 q 401 -302 393 -275 q 416 -354 408 -329 q 429 -401 424 -379 q 432 -444 435 -424 q 417 -477 426 -468 q 396 -489 407 -486 q 369 -486 383 -492 l 314 -104 q 306 -94 314 -107 q 284 -58 297 -81 q 255 -6 271 -35 q 224 56 239 24 q 202 106 213 82 q 183 151 192 131 q 170 185 175 171 q 168 208 165 200 q 167 282 171 250 q 160 336 164 314 q 147 382 154 361 l 106 49 q 103 -44 106 4 q 95 -131 101 -93 q 76 -187 89 -168 q 43 -194 64 -207 l 29 -14 l 50 174 q 15 232 18 197 q 18 305 11 267 q 35 381 25 343 q 43 451 46 419 q 8 542 17 483 q 15 681 0 601 q 31 832 28 753 q 36 976 35 911 q 41 1083 38 1040 q 57 1125 44 1125 l 64 1125 m 258 847 q 234 835 247 847 q 210 813 221 824 q 195 790 199 801 q 190 767 192 779 q 185 741 188 754 q 175 715 183 728 q 163 701 172 707 q 146 691 154 696 q 133 681 138 686 q 133 667 128 675 q 151 645 139 658 q 175 614 163 632 q 199 576 188 596 q 217 535 211 556 q 228 534 219 522 q 247 568 238 546 q 265 615 257 590 q 272 653 272 640 q 267 673 272 663 q 256 694 261 683 q 246 715 250 704 q 244 736 242 725 q 257 763 247 751 q 276 783 267 774 q 290 803 285 793 q 286 826 294 814 q 275 842 281 838 q 258 847 269 847 z "},"S":{"ha":782,"x_min":-18,"x_max":607,"o":"m 515 576 q 547 566 536 576 q 578 556 557 556 q 603 544 599 553 q 601 525 607 535 q 580 508 594 515 q 550 500 565 500 q 524 482 538 489 q 500 470 513 475 q 481 465 488 465 q 397 465 439 475 q 369 461 385 465 q 341 451 354 457 q 317 442 328 446 q 300 438 306 438 q 271 446 289 443 q 238 438 253 449 q 224 425 226 429 q 220 417 221 421 q 216 408 219 413 q 203 396 213 404 q 193 395 197 393 q 185 399 189 397 q 178 403 182 401 q 168 403 174 406 q 151 379 157 392 q 140 361 146 367 q 142 348 138 358 q 156 325 147 338 q 178 301 165 313 q 203 285 190 290 q 281 299 244 290 q 349 292 317 307 q 377 285 354 286 q 411 278 400 283 q 445 259 432 267 q 474 236 458 251 q 499 217 489 231 q 515 188 510 203 q 524 158 526 176 q 515 125 521 140 q 498 106 510 114 q 481 83 486 99 q 481 59 475 72 q 481 35 486 46 q 446 -21 469 3 q 390 -56 422 -44 q 374 -56 382 -58 q 356 -52 365 -54 q 338 -48 346 -50 q 321 -49 329 -46 q 304 -63 310 -54 q 293 -82 299 -72 q 281 -100 288 -92 q 265 -111 275 -108 q 249 -111 257 -114 q 234 -104 242 -108 q 219 -97 226 -100 q 203 -97 211 -94 q 93 -122 144 -112 q 15 -111 42 -132 q 10 -113 13 -108 q 4 -125 7 -118 q -3 -137 1 -132 q -12 -139 -7 -142 q -15 -128 -18 -139 q -12 -111 -12 -117 q -5 -90 -10 -103 q 6 -65 0 -78 q 17 -41 11 -51 q 29 -28 24 -31 q 55 -31 42 -25 q 81 -44 68 -37 q 104 -56 93 -51 q 126 -56 115 -61 q 133 -42 132 -50 q 140 -35 135 -35 q 158 -24 149 -26 q 176 -22 167 -22 q 196 -23 186 -22 q 217 -21 206 -24 q 238 -10 228 -15 q 258 7 247 -4 q 273 28 268 13 q 293 49 278 43 q 314 55 304 54 q 335 56 324 56 q 377 65 358 61 q 406 79 396 69 q 414 108 415 89 q 397 160 413 126 q 385 178 392 172 q 371 188 379 185 q 351 191 363 190 q 328 194 340 192 q 290 200 307 200 q 251 194 272 200 q 194 188 219 186 q 142 200 168 189 q 87 232 115 211 q 22 285 58 253 q 27 308 17 290 q 43 340 38 325 q 66 394 54 367 q 99 438 78 422 q 126 448 110 449 q 154 458 143 447 q 178 489 169 469 q 203 514 188 508 q 224 520 214 519 q 244 521 233 521 q 265 517 256 521 q 286 514 275 514 q 311 535 301 519 q 342 556 321 550 q 369 558 354 561 q 397 553 383 556 q 426 549 411 550 q 453 556 440 547 q 515 576 494 586 z "},"T":{"ha":706,"x_min":6,"x_max":624,"o":"m 363 1326 q 381 1268 386 1303 q 360 1194 375 1233 q 330 1115 344 1156 q 321 1042 315 1075 q 329 1020 324 1026 q 342 1010 335 1014 q 354 1001 349 1007 q 363 979 360 994 q 358 944 365 964 q 344 901 351 924 q 331 856 336 879 q 335 813 326 833 q 338 749 344 783 q 319 685 331 715 q 297 632 307 654 q 293 604 288 610 q 321 597 306 593 q 349 607 336 600 q 374 621 363 614 q 390 625 385 628 q 399 607 397 617 q 399 589 401 597 q 390 569 396 579 q 397 558 385 554 q 430 565 408 561 q 479 567 451 569 q 536 535 507 564 q 584 497 563 508 q 615 476 606 485 q 616 455 624 467 q 578 417 608 443 q 572 357 583 372 q 541 347 561 342 q 495 371 521 351 q 446 417 469 390 q 401 389 426 385 q 351 410 375 393 q 293 465 324 429 q 299 343 300 399 q 289 251 297 294 q 258 194 281 207 q 263 144 258 168 q 272 98 268 119 q 276 58 276 76 q 265 28 275 40 q 239 -28 246 -6 q 231 -68 232 -50 q 230 -104 229 -86 q 226 -145 231 -122 q 208 -199 221 -168 q 168 -278 196 -231 q 147 -244 153 -256 q 142 -224 142 -232 q 147 -209 143 -217 q 157 -187 151 -201 q 166 -149 163 -174 q 168 -83 169 -125 q 171 -34 168 -60 q 176 17 174 -8 q 177 66 178 42 q 168 111 176 90 q 152 151 160 132 q 144 189 144 169 q 151 230 143 208 q 182 278 158 251 q 199 312 194 293 q 204 353 204 331 q 201 404 204 376 q 196 465 199 432 q 179 475 193 474 q 149 478 165 476 q 116 486 132 481 q 92 507 100 492 q 74 522 89 517 q 44 531 60 528 q 17 540 29 535 q 8 556 6 544 q 19 590 8 571 q 50 604 29 610 q 77 597 68 596 q 92 605 86 599 q 101 619 97 611 q 113 632 104 626 q 151 641 128 638 q 189 660 174 644 q 194 671 199 672 q 184 667 190 669 q 176 670 178 665 q 189 701 174 675 q 198 758 194 728 q 206 824 201 789 q 220 899 211 860 q 244 979 229 938 q 263 1113 244 1050 q 303 1224 281 1175 q 363 1326 328 1279 z "},"U":{"ha":699,"x_min":3,"x_max":594,"o":"m 543 785 q 563 781 554 785 q 578 771 572 776 q 592 733 590 753 q 590 694 594 714 q 580 653 586 674 q 571 611 574 632 q 567 576 565 593 q 572 542 569 558 q 574 510 575 526 q 564 479 574 494 q 549 451 558 464 q 531 427 540 439 q 515 403 522 415 q 508 375 508 390 q 510 344 514 351 q 502 334 507 338 q 495 325 497 331 q 501 299 493 319 q 514 276 501 288 q 540 252 526 264 q 563 231 554 240 q 564 215 572 221 q 520 186 532 196 q 506 170 508 176 q 503 156 503 164 q 497 135 504 149 q 472 99 490 122 q 411 35 453 75 q 362 65 379 63 q 335 57 344 68 q 324 25 326 46 q 320 -17 322 4 q 315 -53 318 -37 q 303 -68 313 -68 q 274 -49 293 -68 q 224 21 256 -29 q 188 26 206 31 q 151 15 169 22 q 114 4 132 7 q 78 14 96 1 q 54 64 60 38 q 51 119 49 90 q 59 175 53 147 q 71 229 65 203 q 32 231 50 218 q 8 264 14 243 q 9 350 3 306 q 36 431 15 394 q 63 481 49 443 q 90 563 76 519 q 114 647 103 607 q 133 701 125 686 q 145 716 142 719 q 153 703 149 713 q 163 688 157 694 q 182 694 169 682 l 182 688 q 162 612 174 649 q 138 538 150 575 q 117 462 126 500 q 106 382 108 424 q 113 366 106 364 q 129 381 119 368 q 149 416 139 394 q 168 458 160 438 q 192 441 190 461 q 188 389 194 421 q 171 318 181 357 q 160 245 161 279 q 174 189 160 211 q 231 167 189 167 q 283 150 254 146 q 341 176 313 154 q 392 232 369 197 q 425 306 414 267 q 420 410 410 358 q 446 514 431 461 q 463 553 446 535 q 501 576 481 571 q 525 615 522 592 q 522 663 528 638 q 509 714 517 688 q 501 764 501 740 q 512 780 496 775 q 543 785 528 785 z "},"V":{"ha":531,"x_min":0,"x_max":419,"o":"m 369 889 q 384 878 375 889 q 404 840 393 867 q 417 727 414 775 q 418 638 419 679 q 414 558 417 597 q 411 472 411 519 q 385 432 396 461 q 367 364 374 403 q 358 283 361 325 q 356 208 356 242 q 355 155 361 175 q 337 122 349 135 q 310 103 325 110 q 279 90 294 96 q 252 77 264 85 q 238 56 240 69 q 240 -32 240 3 q 236 -90 239 -67 q 230 -125 233 -112 q 224 -146 226 -137 q 201 -131 211 -131 q 183 -126 190 -131 q 172 -101 175 -121 q 168 -28 168 -82 q 129 -22 146 -33 q 101 11 113 -10 q 85 60 90 32 q 77 114 79 88 q 77 162 75 140 q 85 194 79 183 l 64 368 q 41 472 58 418 q 12 578 24 526 q 3 677 0 631 q 43 757 7 724 q 26 840 22 815 q 50 875 29 864 l 92 736 l 119 611 l 175 139 q 186 172 175 163 q 213 188 197 181 q 242 203 228 194 q 265 236 257 213 q 278 308 275 265 q 279 397 281 351 q 275 481 278 442 q 272 542 272 521 q 297 559 285 568 q 317 535 308 550 q 333 510 326 519 q 342 528 339 501 q 338 551 342 538 q 329 585 333 564 q 324 637 325 606 q 328 715 322 668 q 344 839 333 789 q 369 889 354 889 z "},"W":{"ha":747,"x_min":-6,"x_max":660,"o":"m 613 1292 q 649 1271 639 1292 q 654 1229 660 1250 q 645 1176 649 1211 q 639 1103 642 1142 q 635 1029 636 1065 q 633 972 633 993 q 627 895 628 936 q 626 813 626 854 q 625 794 626 804 q 619 774 624 783 q 606 760 614 765 q 585 757 597 754 q 611 674 596 715 q 626 590 626 632 q 627 569 629 579 q 619 551 625 558 q 603 542 613 544 q 585 549 594 540 q 582 431 579 490 q 585 313 585 371 q 585 294 585 304 q 585 276 586 285 q 582 260 585 267 q 571 250 579 253 q 569 260 571 268 q 567 241 568 253 q 565 224 567 229 q 564 243 564 219 q 571 250 571 243 l 571 243 q 565 167 565 207 q 550 97 565 128 q 546 19 542 58 q 558 -59 550 -19 q 571 -137 565 -99 q 571 -215 576 -176 q 535 -206 550 -215 q 508 -181 519 -196 q 494 -122 497 -151 q 491 -62 492 -93 q 487 -3 490 -32 q 474 56 483 26 q 446 117 460 93 q 419 156 432 140 q 394 184 406 172 q 371 212 382 196 q 351 251 360 228 q 335 313 342 274 q 342 228 340 274 q 343 136 344 182 q 336 46 342 90 q 321 -35 331 1 q 305 -96 310 -61 q 299 -167 300 -131 q 302 -237 299 -203 q 314 -299 306 -272 q 317 -313 317 -304 q 316 -331 318 -322 q 308 -347 314 -340 q 293 -354 303 -354 q 243 -301 261 -333 q 210 -236 225 -268 q 203 -216 201 -226 q 206 -195 204 -206 q 210 -174 208 -185 q 203 -153 211 -164 q 183 -162 192 -158 q 168 -160 174 -165 q 164 -153 164 -165 q 165 -122 164 -142 q 168 -76 167 -101 q 171 -26 169 -50 q 172 14 172 -3 q 168 35 171 31 q 142 62 156 50 q 117 85 128 74 q 99 111 106 97 q 92 146 92 125 q 91 190 92 158 q 92 255 90 221 q 97 317 93 289 q 113 354 101 346 q 116 419 118 399 q 109 455 114 439 q 97 491 104 471 q 85 556 90 511 q 68 547 76 553 q 50 535 60 540 q 32 528 40 529 q 15 535 24 526 q -5 622 -6 576 q 1 715 -4 668 q 7 749 7 731 q 8 783 7 767 q 15 815 10 800 q 36 840 21 829 q 51 855 47 846 q 50 875 56 864 q 22 1000 24 938 q 15 1125 21 1063 q 16 1144 13 1135 q 25 1157 19 1153 q 38 1161 31 1161 q 50 1153 44 1161 q 69 1105 63 1129 q 78 1055 75 1081 q 84 1003 82 1029 q 92 951 86 978 q 126 951 115 963 q 135 914 135 933 q 134 875 136 894 q 129 836 132 856 q 126 799 126 817 q 168 757 157 788 q 189 544 189 653 q 189 326 189 436 q 188 309 189 321 q 187 286 188 297 q 186 269 186 275 q 189 271 186 263 q 227 378 210 324 q 265 486 244 433 q 260 540 265 513 q 251 594 256 567 q 244 651 246 622 q 251 708 243 679 q 258 734 251 721 q 274 757 264 747 q 296 769 283 767 q 321 764 308 772 q 330 806 326 779 q 349 847 333 832 q 368 858 357 857 q 390 853 379 860 q 407 836 400 847 q 411 813 414 825 q 406 698 400 754 q 418 583 413 642 q 451 440 433 510 q 481 292 469 371 q 490 385 486 339 q 494 479 494 432 q 494 487 492 475 q 502 519 496 499 q 517 563 508 539 q 533 610 525 588 q 545 651 540 633 q 550 674 550 668 q 535 740 550 718 q 504 781 521 763 q 476 822 488 800 q 474 889 465 844 q 526 931 510 892 q 549 1024 543 971 q 555 1133 556 1078 q 557 1222 554 1189 q 565 1233 557 1238 q 599 1229 572 1229 q 602 1233 601 1224 q 603 1255 603 1242 q 606 1280 604 1268 q 613 1292 607 1292 z "},"X":{"ha":865,"x_min":13,"x_max":767,"o":"m 515 910 q 535 858 535 875 q 526 834 536 842 q 501 826 517 826 q 472 822 486 825 q 449 809 457 818 q 446 778 440 800 q 444 752 449 763 q 432 733 439 742 q 420 716 425 725 q 418 694 415 707 q 424 672 421 679 q 431 656 426 664 q 440 636 435 649 q 453 597 444 624 q 454 535 465 561 q 426 491 443 510 q 396 458 410 472 q 390 431 382 443 q 403 403 399 411 q 413 392 408 396 q 425 388 418 389 q 444 381 432 386 q 474 361 456 375 q 522 319 493 347 q 553 278 551 290 q 547 263 556 267 q 527 259 539 258 q 515 257 515 260 q 532 215 515 233 q 572 181 549 197 q 621 149 596 165 q 661 111 646 132 q 720 50 694 72 q 756 15 746 28 q 758 -9 767 1 q 717 -35 750 -19 q 710 -78 719 -71 q 681 -68 700 -85 q 635 -14 663 -51 q 578 76 608 24 q 518 122 551 82 q 454 210 485 163 q 383 333 418 265 q 386 240 389 278 q 381 210 385 224 q 371 190 378 197 q 353 182 364 182 q 328 194 343 182 q 330 156 325 179 q 339 111 335 132 q 344 77 343 90 q 335 69 344 64 q 292 60 306 75 q 272 19 279 44 q 259 -40 264 -7 q 244 -104 254 -74 q 235 -133 239 -117 q 223 -164 231 -150 q 204 -185 215 -178 q 175 -187 193 -193 q 158 -118 160 -146 q 161 -69 156 -90 q 182 -31 169 -49 q 207 7 194 -12 q 228 49 219 26 q 238 104 238 72 q 242 137 238 122 q 248 166 246 151 q 249 199 250 181 q 238 243 247 217 q 221 290 229 267 q 212 327 213 313 q 222 345 211 342 q 265 333 233 349 q 288 333 286 322 q 284 367 290 344 q 267 420 278 390 q 251 479 257 450 q 235 508 251 488 q 197 556 218 529 q 155 611 175 583 q 126 660 135 639 q 102 697 121 672 q 63 747 83 722 q 28 793 43 772 q 15 819 13 814 q 30 827 15 831 q 71 792 44 824 q 106 745 94 758 q 126 728 118 732 q 138 724 133 724 q 154 715 143 724 q 193 676 164 704 q 254 616 222 647 q 313 559 286 585 q 349 528 340 533 q 357 533 357 524 q 353 556 357 542 q 344 587 350 569 q 337 618 339 604 q 338 640 335 632 q 356 646 342 649 q 363 676 364 656 q 364 717 363 696 q 373 755 365 738 q 404 778 381 772 q 425 853 407 826 q 463 893 443 881 q 515 910 486 908 z "},"Y":{"ha":671,"x_min":25,"x_max":542,"o":"m 54 892 q 126 759 94 825 q 199 628 158 693 q 232 594 221 615 q 249 551 243 574 q 260 504 256 528 q 272 461 264 481 q 310 417 294 440 q 329 361 325 393 q 336 359 331 353 q 348 376 342 365 q 360 399 354 388 q 371 415 367 411 q 409 442 392 422 q 424 488 426 461 q 478 556 447 521 q 538 626 508 592 q 537 582 542 603 q 523 542 532 561 q 503 502 514 522 q 482 460 492 482 q 464 399 474 431 q 433 346 454 368 q 424 315 432 331 q 417 276 415 299 q 402 240 414 257 q 378 206 390 222 q 354 171 365 189 q 340 133 343 153 q 328 79 338 106 q 301 38 319 53 q 288 -1 286 17 q 283 -54 289 -19 l 214 -354 q 191 -401 208 -374 q 151 -456 174 -428 q 106 -508 129 -483 q 63 -545 82 -532 q 35 -558 44 -558 q 32 -533 25 -557 q 52 -476 40 -504 q 76 -419 64 -447 q 98 -362 88 -392 q 113 -303 108 -333 q 124 -278 117 -287 q 137 -260 131 -268 q 145 -243 143 -251 q 142 -222 147 -235 q 145 -193 138 -207 q 164 -165 153 -179 q 185 -137 175 -151 q 197 -107 196 -124 q 189 -88 197 -96 q 174 -72 181 -81 q 165 -53 167 -64 q 175 -26 163 -43 q 188 -8 181 -17 q 197 9 194 0 q 196 28 200 18 q 175 53 192 39 q 167 70 163 60 q 185 92 172 81 q 215 117 199 104 q 238 142 231 129 q 244 182 246 160 q 238 227 243 204 q 227 273 232 250 q 225 318 222 296 q 223 326 228 326 q 211 322 218 325 q 197 319 204 319 q 186 329 189 319 q 181 389 189 357 q 156 443 172 421 q 113 518 129 479 q 85 597 96 557 q 66 669 75 633 q 76 732 57 704 q 61 800 74 764 q 39 872 49 836 q 40 890 42 879 q 44 903 39 901 l 54 892 z "},"Z":{"ha":900,"x_min":11,"x_max":775,"o":"m 67 1111 q 117 1097 88 1111 q 179 1061 146 1082 q 249 1019 213 1040 q 319 984 285 997 q 384 970 353 971 q 439 990 415 969 q 492 1013 461 1011 q 553 1002 522 1014 q 608 972 583 990 q 643 935 632 953 q 660 941 654 946 q 663 921 665 936 q 660 906 664 910 q 652 900 657 901 q 642 898 647 899 q 632 892 636 897 q 601 820 611 860 q 585 740 592 781 q 571 659 579 699 q 546 588 563 619 q 537 582 543 579 q 524 589 531 585 q 509 597 517 593 q 496 594 501 600 q 471 547 478 579 q 454 482 464 514 q 445 441 449 463 q 437 399 442 419 q 424 358 432 378 q 401 326 415 339 q 356 295 378 315 q 322 249 335 275 q 310 219 315 235 q 299 188 306 203 q 285 163 293 174 q 263 150 276 153 q 247 148 254 153 q 238 135 240 143 q 237 118 235 128 q 246 100 239 108 q 282 81 260 85 q 326 72 304 78 q 378 60 351 67 q 431 48 404 53 q 485 42 458 43 q 538 50 511 42 q 553 67 550 56 q 554 91 556 78 q 550 118 553 104 q 549 143 547 132 q 583 128 565 143 q 619 107 601 113 q 653 84 636 92 q 688 72 671 76 q 723 63 706 67 q 758 50 740 58 q 772 39 768 47 q 773 21 775 31 q 765 2 771 11 q 754 -12 760 -7 q 728 -5 742 -12 q 702 10 715 3 q 674 23 689 18 q 646 22 660 28 q 609 1 629 6 q 568 -4 589 -3 q 526 -8 547 -6 q 486 -21 506 -10 q 408 -41 451 -47 q 319 -12 364 -35 q 276 9 299 3 q 231 15 254 15 q 186 8 208 14 q 142 -6 164 3 q 132 -6 138 -3 q 122 -12 126 -8 q 112 -17 117 -15 q 104 -12 107 -18 q 84 18 101 14 q 51 22 67 22 q 81 49 61 43 q 117 72 101 56 q 144 144 131 107 q 174 217 158 181 q 210 285 190 253 q 256 340 229 317 q 276 356 265 350 q 299 368 288 363 q 322 380 311 374 q 343 397 333 386 q 358 477 353 436 q 369 559 364 518 q 383 639 375 600 q 406 715 390 678 q 456 808 419 774 q 536 864 493 842 q 480 874 506 875 q 424 878 454 872 q 349 906 388 899 q 281 892 311 914 q 234 899 257 900 q 190 894 211 899 q 147 883 168 890 q 106 871 126 876 q 102 894 100 881 q 108 921 104 907 q 112 949 111 935 q 104 976 113 964 q 83 991 94 988 q 58 993 71 994 q 33 987 44 992 q 11 976 21 982 q 19 1042 11 1008 q 40 1104 26 1076 q 52 1110 44 1110 q 67 1111 60 1111 z "},"b":{"ha":681,"x_min":-10,"x_max":593,"o":"m 210 1285 q 245 1273 231 1285 q 265 1250 260 1261 q 265 1205 275 1226 q 237 1162 254 1183 q 202 1118 219 1140 q 182 1069 185 1096 q 185 1033 179 1051 q 198 995 190 1014 q 213 957 206 976 q 224 917 221 938 q 219 808 226 864 q 199 699 211 753 q 175 598 188 646 q 154 514 163 550 q 154 488 151 499 q 160 468 157 476 q 165 453 164 460 q 161 438 167 446 q 151 383 153 411 q 151 334 149 356 q 161 301 153 313 q 182 299 169 290 q 262 340 218 322 q 344 371 306 358 q 410 390 383 383 q 439 396 436 396 q 438 399 447 393 q 414 413 428 404 q 389 433 400 422 q 383 451 378 443 q 419 477 392 472 q 478 477 446 482 q 542 459 511 472 q 585 431 572 446 q 586 413 593 422 q 569 394 579 404 q 552 372 560 383 q 550 347 544 360 q 578 220 576 282 q 552 111 579 158 q 466 38 525 64 q 314 21 407 13 q 249 10 281 24 q 187 -8 217 -3 q 128 4 157 -12 q 71 83 100 21 q 52 107 65 96 q 26 130 39 118 q 1 156 13 142 q -9 190 -10 171 q 6 233 -8 208 q 57 292 21 258 q 60 353 57 324 q 66 405 63 378 q 78 451 69 432 q 98 556 88 496 q 115 678 108 615 q 126 802 122 742 q 126 910 129 863 q 120 944 126 931 q 106 968 114 958 q 94 985 99 978 q 92 1000 89 992 q 113 1077 104 1039 q 132 1151 122 1115 q 155 1217 142 1186 q 189 1271 168 1247 q 199 1281 194 1276 q 210 1285 204 1285 m 467 347 q 452 339 461 347 q 434 319 443 331 q 418 294 425 308 q 411 271 411 281 q 414 249 411 260 q 419 231 417 239 q 423 217 422 222 q 418 215 424 213 q 401 228 407 218 q 390 249 396 238 q 378 269 385 260 q 363 278 372 278 q 320 272 343 283 q 275 244 297 260 q 224 201 250 226 q 195 181 208 193 q 178 153 182 168 q 183 119 175 138 q 217 83 190 101 q 251 76 229 75 q 296 81 272 76 q 344 94 319 86 q 390 111 369 103 q 428 121 406 117 q 470 132 450 125 q 502 149 490 139 q 508 174 514 158 q 496 205 503 183 q 483 251 489 226 q 474 298 478 275 q 474 333 471 321 q 467 347 474 347 z "},"c":{"ha":697,"x_min":14,"x_max":567,"o":"m 22 243 q 19 280 14 258 q 38 328 25 301 q 67 385 51 354 q 97 448 83 415 q 115 515 110 481 q 113 583 121 549 q 103 676 100 631 q 123 758 106 721 q 169 823 140 796 q 238 861 199 850 q 254 927 240 897 q 288 978 268 957 q 329 1010 307 999 q 369 1021 351 1021 q 392 1011 381 1021 q 404 986 404 1001 q 472 976 440 983 q 524 959 500 969 q 557 931 549 949 q 548 881 567 894 q 497 861 529 867 q 426 852 464 856 q 363 833 389 849 q 349 822 351 831 q 347 800 347 813 q 347 774 347 788 q 342 750 347 760 q 318 697 335 721 q 283 650 301 672 q 248 606 264 628 q 225 558 232 583 q 224 501 218 532 q 258 431 231 471 q 214 323 229 368 q 194 248 199 278 q 192 202 189 218 q 203 181 194 186 q 232 174 221 168 q 254 194 243 181 q 280 225 265 208 q 321 250 294 242 l 390 264 q 408 254 403 265 q 417 229 414 243 q 426 201 421 215 q 444 185 432 188 q 478 194 457 182 q 536 243 500 207 q 551 231 546 256 q 547 172 556 207 q 514 104 539 136 q 439 69 489 72 q 406 49 418 67 q 382 19 394 32 q 351 7 369 6 q 300 42 333 8 q 284 35 292 50 q 270 -7 276 21 q 257 -68 264 -35 q 242 -130 250 -101 q 224 -176 233 -158 q 203 -187 215 -193 q 192 -172 194 -185 q 186 -142 189 -160 q 176 -104 183 -124 q 154 -69 169 -85 q 127 -15 131 -43 q 127 38 124 14 q 133 78 131 61 q 126 97 136 94 q 96 97 113 100 q 66 94 79 94 q 45 101 53 94 q 41 130 38 107 q 63 196 44 153 q 119 313 81 239 q 116 309 128 322 q 86 278 104 296 q 49 246 68 260 q 22 243 31 232 z "},"f":{"ha":740,"x_min":-78,"x_max":538,"o":"m -78 329 q -31 335 -57 335 q 24 332 -4 335 q 41 344 29 340 q 64 357 53 349 q 82 382 75 365 q 85 432 89 399 l 89 468 q 71 481 82 468 q 40 528 47 507 q 33 569 32 550 q 41 608 33 589 q 57 647 49 626 q 66 692 65 668 q 65 742 67 717 q 60 792 63 767 q 57 842 57 818 q 18 928 18 901 q 43 962 18 954 q 110 965 68 969 q 198 956 153 960 q 285 954 243 951 q 349 981 326 957 q 455 962 408 976 q 519 929 501 947 q 521 892 538 911 q 439 863 504 874 q 358 863 379 857 q 332 873 336 868 q 328 878 328 878 q 314 863 329 878 q 288 854 308 860 q 247 840 268 849 q 209 820 225 832 q 196 793 193 808 q 199 746 203 765 q 187 708 194 726 q 171 667 179 689 q 161 615 163 646 q 168 540 160 585 q 203 432 176 496 q 230 475 221 478 q 240 444 239 472 q 233 374 240 417 q 215 297 226 332 q 312 294 269 290 q 385 303 354 297 q 438 316 417 310 q 472 319 460 322 q 490 302 485 317 q 494 254 496 288 q 476 246 494 247 q 433 243 458 244 q 384 238 408 242 q 349 219 360 233 l 182 181 q 176 160 179 167 q 166 35 161 85 q 168 -35 171 -15 q 160 -60 160 -56 q 168 -69 160 -65 q 192 -81 176 -72 q 231 -118 207 -89 q 242 -134 240 -131 q 240 -139 243 -137 q 231 -144 236 -140 q 224 -161 226 -149 q 231 -222 218 -197 q 256 -267 243 -247 q 272 -306 268 -287 q 251 -349 275 -325 q 219 -404 240 -386 q 176 -410 197 -422 q 140 -349 154 -397 q 133 -207 126 -301 q 109 -126 118 -165 q 95 -53 100 -87 q 87 10 90 -19 q 78 64 83 40 q 64 115 63 90 q 72 163 65 139 q 15 185 46 171 l -78 329 z "}}}
